<svg display="none" xmlns="http://www.w3.org/2000/svg">
	<symbol id="viber" viewBox="0 0 322 322">
		<path id="XMLID_8_" d="M275.445,135.123c0.387-45.398-38.279-87.016-86.192-92.771c-0.953-0.113-1.991-0.285-3.09-0.467
		c-2.372-0.393-4.825-0.797-7.3-0.797c-9.82,0-12.445,6.898-13.136,11.012c-0.672,4-0.031,7.359,1.902,9.988
		c3.252,4.422,8.974,5.207,13.57,5.836c1.347,0.186,2.618,0.359,3.682,0.598c43.048,9.619,57.543,24.742,64.627,67.424
		c0.173,1.043,0.251,2.328,0.334,3.691c0.309,5.102,0.953,15.717,12.365,15.717h0.001c0.95,0,1.971-0.082,3.034-0.244
		c10.627-1.615,10.294-11.318,10.134-15.98c-0.045-1.313-0.088-2.555,0.023-3.381C275.429,135.541,275.444,135.332,275.445,135.123z
		" />
		<path id="XMLID_9_" d="M176.077,25.688c1.275,0.092,2.482,0.18,3.487,0.334c70.689,10.871,103.198,44.363,112.207,115.605
		c0.153,1.211,0.177,2.688,0.202,4.252c0.09,5.566,0.275,17.145,12.71,17.385l0.386,0.004c3.9,0,7.002-1.176,9.221-3.498
		c3.871-4.049,3.601-10.064,3.383-14.898c-0.053-1.186-0.104-2.303-0.091-3.281C318.481,68.729,255.411,2.658,182.614,0.201
		c-0.302-0.01-0.59,0.006-0.881,0.047c-0.143,0.021-0.408,0.047-0.862,0.047c-0.726,0-1.619-0.063-2.566-0.127
		C177.16,0.09,175.862,0,174.546,0c-11.593,0-13.797,8.24-14.079,13.152C159.817,24.504,170.799,25.303,176.077,25.688z" />
		<path id="XMLID_10_" d="M288.36,233.703c-1.503-1.148-3.057-2.336-4.512-3.508c-7.718-6.211-15.929-11.936-23.87-17.473
		c-1.648-1.148-3.296-2.297-4.938-3.449c-10.172-7.145-19.317-10.617-27.957-10.617c-11.637,0-21.783,6.43-30.157,19.109
		c-3.71,5.621-8.211,8.354-13.758,8.354c-3.28,0-7.007-0.936-11.076-2.783c-32.833-14.889-56.278-37.717-69.685-67.85
		c-6.481-14.564-4.38-24.084,7.026-31.832c6.477-4.396,18.533-12.58,17.679-28.252c-0.967-17.797-40.235-71.346-56.78-77.428
		c-7.005-2.576-14.365-2.6-21.915-0.06c-19.02,6.394-32.669,17.623-39.475,32.471C2.365,64.732,2.662,81.578,9.801,99.102
		c20.638,50.666,49.654,94.84,86.245,131.293c35.816,35.684,79.837,64.914,130.839,86.875c4.597,1.978,9.419,3.057,12.94,3.844
		c1.2,0.27,2.236,0.5,2.991,0.707c0.415,0.113,0.843,0.174,1.272,0.178l0.403,0.002c0.001,0,0,0,0.002,0
		c23.988,0,52.791-21.92,61.637-46.91C313.88,253.209,299.73,242.393,288.36,233.703z" />
		<path id="XMLID_11_" d="M186.687,83.564c-4.107,0.104-12.654,0.316-15.653,9.021c-1.403,4.068-1.235,7.6,0.5,10.498
		c2.546,4.252,7.424,5.555,11.861,6.27c16.091,2.582,24.355,11.48,26.008,28c0.768,7.703,5.955,13.082,12.615,13.082h0.001
		c0.492,0,0.995-0.029,1.496-0.09c8.01-0.953,11.893-6.838,11.542-17.49c0.128-11.117-5.69-23.738-15.585-33.791
		C209.543,88.98,197.574,83.301,186.687,83.564z" />
	</symbol>
	<symbol id="whatsapp" viewBox="0 0 24 24">
		<path d="m17.507 14.307-.009.075c-2.199-1.096-2.429-1.242-2.713-.816-.197.295-.771.964-.944 1.162-.175.195-.349.21-.646.075-.3-.15-1.263-.465-2.403-1.485-.888-.795-1.484-1.77-1.66-2.07-.293-.506.32-.578.878-1.634.1-.21.049-.375-.025-.524-.075-.15-.672-1.62-.922-2.206-.24-.584-.487-.51-.672-.51-.576-.05-.997-.042-1.368.344-1.614 1.774-1.207 3.604.174 5.55 2.714 3.552 4.16 4.206 6.804 5.114.714.227 1.365.195 1.88.121.574-.091 1.767-.721 2.016-1.426.255-.705.255-1.29.18-1.425-.074-.135-.27-.21-.57-.345z" />
		<path d="m20.52 3.449c-7.689-7.433-20.414-2.042-20.419 8.444 0 2.096.549 4.14 1.595 5.945l-1.696 6.162 6.335-1.652c7.905 4.27 17.661-1.4 17.665-10.449 0-3.176-1.24-6.165-3.495-8.411zm1.482 8.417c-.006 7.633-8.385 12.4-15.012 8.504l-.36-.214-3.75.975 1.005-3.645-.239-.375c-4.124-6.565.614-15.145 8.426-15.145 2.654 0 5.145 1.035 7.021 2.91 1.875 1.859 2.909 4.35 2.909 6.99z" />
	</symbol>
	<symbol id="super" viewBox="0 0 135 133">
		<defs>
			<mask id="eaa2b" width="2.5" height="2.52" x="-1.25" y="-1.26">
				<path fill="#fff" d="M30.7 21.7h73.6v71.6H30.7z" />
				<path d="M53.736 72.13a1.387 1.387 0 0 1-1.974-.086 1.43 1.43 0 0 1 .085-2 1.385 1.385 0 0 1 1.974.084 1.432 1.432 0 0 1-.085 2.002zm5.668 6.256a9.702 9.702 0 0 1-13.821-.593c-3.646-4.025-3.378-10.31.596-14.007A9.701 9.701 0 0 1 60 64.38c3.646 4.025 3.378 10.31-.596 14.007zM55.88 68.211a4.158 4.158 0 0 0-5.923-.254 4.295 4.295 0 0 0-.256 6.004 4.158 4.158 0 0 0 5.923.254c1.704-1.585 1.819-4.278.256-6.004zm22.513-12.793a1.424 1.424 0 0 1-.561 1.92 1.384 1.384 0 0 1-1.894-.567l-.521-.972-1.997 1.858.853 1.593a1.426 1.426 0 0 1-.56 1.921 1.385 1.385 0 0 1-1.894-.567l-.521-.972-1.998 1.859.854 1.592a1.426 1.426 0 0 1-.56 1.921 1.385 1.385 0 0 1-1.895-.568l-.52-.972-.416.387c.67 1.609.33 3.537-1.01 4.784l-.54.502a12.728 12.728 0 0 0-3.154-6.674 12.454 12.454 0 0 0-6.292-3.755l.539-.501a4.14 4.14 0 0 1 4.789-.612l1.96-1.825-.853-1.593a1.424 1.424 0 0 1 .56-1.92c.68-.375 1.53-.13 1.895.567l.52.972 1.998-1.859-.854-1.593a1.425 1.425 0 0 1 .56-1.92 1.38 1.38 0 0 1 1.895.567l.52.972 1.998-1.858-.854-1.594a1.424 1.424 0 0 1 .561-1.92 1.38 1.38 0 0 1 1.894.568l.52.972 2.299-2.14c.412 1.372 1.093 2.679 2.11 3.803 1.019 1.123 2.245 1.922 3.558 2.456l-3.843 3.575zm11.364-9.117a6.93 6.93 0 0 1-9.872-.424c-2.605-2.876-2.414-7.363.425-10.005a6.929 6.929 0 0 1 9.873.424c2.604 2.874 2.413 7.364-.426 10.005zm-3.694-6.173a1.385 1.385 0 0 0-1.974-.084 1.43 1.43 0 0 0-.085 2 1.384 1.384 0 0 0 1.974.085 1.43 1.43 0 0 0 .085-2.001z" />
			</mask>
			<filter id="eaa2a" width="167.2" height="174.2" x="-16.1" y="-25.1" filterUnits="userSpaceOnUse">
				<feOffset dy="9" in="SourceGraphic" result="FeOffset1064Out" />
				<feGaussianBlur in="FeOffset1064Out" result="FeGaussianBlur1065Out" stdDeviation="14.719999999999999 14.719999999999999" />
			</filter>
			<linearGradient id="eaa2c" x1="68.01" x2="67.02" y1="34.01" y2="80.99" gradientUnits="userSpaceOnUse">
				<stop offset="0" stop-color="#ff0054" />
				<stop offset="1" stop-color="#ff0042" />
			</linearGradient>
			<filter id="eaa2d" width="200%" height="200%" x="-50%" y="-50%">
				<feGaussianBlur in="SourceGraphic" result="FeGaussianBlur1086Out" stdDeviation="0 0" />
			</filter>
			<mask id="eaa2e">
				<path fill="#fff" d="M53.736 72.13a1.387 1.387 0 0 1-1.974-.086 1.43 1.43 0 0 1 .085-2 1.385 1.385 0 0 1 1.974.084 1.432 1.432 0 0 1-.085 2.002zm5.668 6.256a9.702 9.702 0 0 1-13.821-.593c-3.646-4.025-3.378-10.31.596-14.007A9.701 9.701 0 0 1 60 64.38c3.646 4.025 3.378 10.31-.596 14.007zM55.88 68.211a4.158 4.158 0 0 0-5.923-.254 4.295 4.295 0 0 0-.256 6.004 4.158 4.158 0 0 0 5.923.254c1.704-1.585 1.819-4.278.256-6.004zm22.513-12.793a1.424 1.424 0 0 1-.561 1.92 1.384 1.384 0 0 1-1.894-.567l-.521-.972-1.997 1.858.853 1.593a1.426 1.426 0 0 1-.56 1.921 1.385 1.385 0 0 1-1.894-.567l-.521-.972-1.998 1.859.854 1.592a1.426 1.426 0 0 1-.56 1.921 1.385 1.385 0 0 1-1.895-.568l-.52-.972-.416.387c.67 1.609.33 3.537-1.01 4.784l-.54.502a12.728 12.728 0 0 0-3.154-6.674 12.454 12.454 0 0 0-6.292-3.755l.539-.501a4.14 4.14 0 0 1 4.789-.612l1.96-1.825-.853-1.593a1.424 1.424 0 0 1 .56-1.92c.68-.375 1.53-.13 1.895.567l.52.972 1.998-1.859-.854-1.593a1.425 1.425 0 0 1 .56-1.92 1.38 1.38 0 0 1 1.895.567l.52.972 1.998-1.858-.854-1.594a1.424 1.424 0 0 1 .561-1.92 1.38 1.38 0 0 1 1.894.568l.52.972 2.299-2.14c.412 1.372 1.093 2.679 2.11 3.803 1.019 1.123 2.245 1.922 3.558 2.456l-3.843 3.575zm11.364-9.117a6.93 6.93 0 0 1-9.872-.424c-2.605-2.876-2.414-7.363.425-10.005a6.929 6.929 0 0 1 9.873.424c2.604 2.874 2.413 7.364-.426 10.005zm-3.694-6.173a1.385 1.385 0 0 0-1.974-.084 1.43 1.43 0 0 0-.085 2 1.384 1.384 0 0 0 1.974.085 1.43 1.43 0 0 0 .085-2.001z" />
			</mask>
		</defs>
		<g>
			<g>
				<g filter="url(#eaa2a)">
					<path fill="none" stroke="#cb0035" stroke-opacity=".36" stroke-width="24.6" d="M53.736 72.13a1.387 1.387 0 0 1-1.974-.086 1.43 1.43 0 0 1 .085-2 1.385 1.385 0 0 1 1.974.084 1.432 1.432 0 0 1-.085 2.002zm5.668 6.256a9.702 9.702 0 0 1-13.821-.593c-3.646-4.025-3.378-10.31.596-14.007A9.701 9.701 0 0 1 60 64.38c3.646 4.025 3.378 10.31-.596 14.007zM55.88 68.211a4.158 4.158 0 0 0-5.923-.254 4.295 4.295 0 0 0-.256 6.004 4.158 4.158 0 0 0 5.923.254c1.704-1.585 1.819-4.278.256-6.004zm22.513-12.793a1.424 1.424 0 0 1-.561 1.92 1.384 1.384 0 0 1-1.894-.567l-.521-.972-1.997 1.858.853 1.593a1.426 1.426 0 0 1-.56 1.921 1.385 1.385 0 0 1-1.894-.567l-.521-.972-1.998 1.859.854 1.592a1.426 1.426 0 0 1-.56 1.921 1.385 1.385 0 0 1-1.895-.568l-.52-.972-.416.387c.67 1.609.33 3.537-1.01 4.784l-.54.502a12.728 12.728 0 0 0-3.154-6.674 12.454 12.454 0 0 0-6.292-3.755l.539-.501a4.14 4.14 0 0 1 4.789-.612l1.96-1.825-.853-1.593a1.424 1.424 0 0 1 .56-1.92c.68-.375 1.53-.13 1.895.567l.52.972 1.998-1.859-.854-1.593a1.425 1.425 0 0 1 .56-1.92 1.38 1.38 0 0 1 1.895.567l.52.972 1.998-1.858-.854-1.594a1.424 1.424 0 0 1 .561-1.92 1.38 1.38 0 0 1 1.894.568l.52.972 2.299-2.14c.412 1.372 1.093 2.679 2.11 3.803 1.019 1.123 2.245 1.922 3.558 2.456l-3.843 3.575zm11.364-9.117a6.93 6.93 0 0 1-9.872-.424c-2.605-2.876-2.414-7.363.425-10.005a6.929 6.929 0 0 1 9.873.424c2.604 2.874 2.413 7.364-.426 10.005zm-3.694-6.173a1.385 1.385 0 0 0-1.974-.084 1.43 1.43 0 0 0-.085 2 1.384 1.384 0 0 0 1.974.085 1.43 1.43 0 0 0 .085-2.001z" mask="url(&quot;#eaa2b&quot;)" />
					<path fill="#cb0035" fill-opacity=".36" d="M53.736 72.13a1.387 1.387 0 0 1-1.974-.086 1.43 1.43 0 0 1 .085-2 1.385 1.385 0 0 1 1.974.084 1.432 1.432 0 0 1-.085 2.002zm5.668 6.256a9.702 9.702 0 0 1-13.821-.593c-3.646-4.025-3.378-10.31.596-14.007A9.701 9.701 0 0 1 60 64.38c3.646 4.025 3.378 10.31-.596 14.007zM55.88 68.211a4.158 4.158 0 0 0-5.923-.254 4.295 4.295 0 0 0-.256 6.004 4.158 4.158 0 0 0 5.923.254c1.704-1.585 1.819-4.278.256-6.004zm22.513-12.793a1.424 1.424 0 0 1-.561 1.92 1.384 1.384 0 0 1-1.894-.567l-.521-.972-1.997 1.858.853 1.593a1.426 1.426 0 0 1-.56 1.921 1.385 1.385 0 0 1-1.894-.567l-.521-.972-1.998 1.859.854 1.592a1.426 1.426 0 0 1-.56 1.921 1.385 1.385 0 0 1-1.895-.568l-.52-.972-.416.387c.67 1.609.33 3.537-1.01 4.784l-.54.502a12.728 12.728 0 0 0-3.154-6.674 12.454 12.454 0 0 0-6.292-3.755l.539-.501a4.14 4.14 0 0 1 4.789-.612l1.96-1.825-.853-1.593a1.424 1.424 0 0 1 .56-1.92c.68-.375 1.53-.13 1.895.567l.52.972 1.998-1.859-.854-1.593a1.425 1.425 0 0 1 .56-1.92 1.38 1.38 0 0 1 1.895.567l.52.972 1.998-1.858-.854-1.594a1.424 1.424 0 0 1 .561-1.92 1.38 1.38 0 0 1 1.894.568l.52.972 2.299-2.14c.412 1.372 1.093 2.679 2.11 3.803 1.019 1.123 2.245 1.922 3.558 2.456l-3.843 3.575zm11.364-9.117a6.93 6.93 0 0 1-9.872-.424c-2.605-2.876-2.414-7.363.425-10.005a6.929 6.929 0 0 1 9.873.424c2.604 2.874 2.413 7.364-.426 10.005zm-3.694-6.173a1.385 1.385 0 0 0-1.974-.084 1.43 1.43 0 0 0-.085 2 1.384 1.384 0 0 0 1.974.085 1.43 1.43 0 0 0 .085-2.001z" />
				</g>
				<path d="M53.736 72.13a1.387 1.387 0 0 1-1.974-.086 1.43 1.43 0 0 1 .085-2 1.385 1.385 0 0 1 1.974.084 1.432 1.432 0 0 1-.085 2.002zm5.668 6.256a9.702 9.702 0 0 1-13.821-.593c-3.646-4.025-3.378-10.31.596-14.007A9.701 9.701 0 0 1 60 64.38c3.646 4.025 3.378 10.31-.596 14.007zM55.88 68.211a4.158 4.158 0 0 0-5.923-.254 4.295 4.295 0 0 0-.256 6.004 4.158 4.158 0 0 0 5.923.254c1.704-1.585 1.819-4.278.256-6.004zm22.513-12.793a1.424 1.424 0 0 1-.561 1.92 1.384 1.384 0 0 1-1.894-.567l-.521-.972-1.997 1.858.853 1.593a1.426 1.426 0 0 1-.56 1.921 1.385 1.385 0 0 1-1.894-.567l-.521-.972-1.998 1.859.854 1.592a1.426 1.426 0 0 1-.56 1.921 1.385 1.385 0 0 1-1.895-.568l-.52-.972-.416.387c.67 1.609.33 3.537-1.01 4.784l-.54.502a12.728 12.728 0 0 0-3.154-6.674 12.454 12.454 0 0 0-6.292-3.755l.539-.501a4.14 4.14 0 0 1 4.789-.612l1.96-1.825-.853-1.593a1.424 1.424 0 0 1 .56-1.92c.68-.375 1.53-.13 1.895.567l.52.972 1.998-1.859-.854-1.593a1.425 1.425 0 0 1 .56-1.92 1.38 1.38 0 0 1 1.895.567l.52.972 1.998-1.858-.854-1.594a1.424 1.424 0 0 1 .561-1.92 1.38 1.38 0 0 1 1.894.568l.52.972 2.299-2.14c.412 1.372 1.093 2.679 2.11 3.803 1.019 1.123 2.245 1.922 3.558 2.456l-3.843 3.575zm11.364-9.117a6.93 6.93 0 0 1-9.872-.424c-2.605-2.876-2.414-7.363.425-10.005a6.929 6.929 0 0 1 9.873.424c2.604 2.874 2.413 7.364-.426 10.005zm-3.694-6.173a1.385 1.385 0 0 0-1.974-.084 1.43 1.43 0 0 0-.085 2 1.384 1.384 0 0 0 1.974.085 1.43 1.43 0 0 0 .085-2.001z" />
				<path fill="url(#eaa2c)" d="M53.736 72.13a1.387 1.387 0 0 1-1.974-.086 1.43 1.43 0 0 1 .085-2 1.385 1.385 0 0 1 1.974.084 1.432 1.432 0 0 1-.085 2.002zm5.668 6.256a9.702 9.702 0 0 1-13.821-.593c-3.646-4.025-3.378-10.31.596-14.007A9.701 9.701 0 0 1 60 64.38c3.646 4.025 3.378 10.31-.596 14.007zM55.88 68.211a4.158 4.158 0 0 0-5.923-.254 4.295 4.295 0 0 0-.256 6.004 4.158 4.158 0 0 0 5.923.254c1.704-1.585 1.819-4.278.256-6.004zm22.513-12.793a1.424 1.424 0 0 1-.561 1.92 1.384 1.384 0 0 1-1.894-.567l-.521-.972-1.997 1.858.853 1.593a1.426 1.426 0 0 1-.56 1.921 1.385 1.385 0 0 1-1.894-.567l-.521-.972-1.998 1.859.854 1.592a1.426 1.426 0 0 1-.56 1.921 1.385 1.385 0 0 1-1.895-.568l-.52-.972-.416.387c.67 1.609.33 3.537-1.01 4.784l-.54.502a12.728 12.728 0 0 0-3.154-6.674 12.454 12.454 0 0 0-6.292-3.755l.539-.501a4.14 4.14 0 0 1 4.789-.612l1.96-1.825-.853-1.593a1.424 1.424 0 0 1 .56-1.92c.68-.375 1.53-.13 1.895.567l.52.972 1.998-1.859-.854-1.593a1.425 1.425 0 0 1 .56-1.92 1.38 1.38 0 0 1 1.895.567l.52.972 1.998-1.858-.854-1.594a1.424 1.424 0 0 1 .561-1.92 1.38 1.38 0 0 1 1.894.568l.52.972 2.299-2.14c.412 1.372 1.093 2.679 2.11 3.803 1.019 1.123 2.245 1.922 3.558 2.456l-3.843 3.575zm11.364-9.117a6.93 6.93 0 0 1-9.872-.424c-2.605-2.876-2.414-7.363.425-10.005a6.929 6.929 0 0 1 9.873.424c2.604 2.874 2.413 7.364-.426 10.005zm-3.694-6.173a1.385 1.385 0 0 0-1.974-.084 1.43 1.43 0 0 0-.085 2 1.384 1.384 0 0 0 1.974.085 1.43 1.43 0 0 0 .085-2.001z" />
				<path fill="#f2abba" fill-opacity=".5" d="M43 83V32h49v10.56a7.086 7.086 0 0 0-1.816-4.264 6.929 6.929 0 0 0-9.873-.424c-2.839 2.642-3.03 7.13-.425 10.005a6.93 6.93 0 0 0 9.872.424A7.1 7.1 0 0 0 92 43.596V83zm10.821-10.872a1.385 1.385 0 0 0-1.974-.084 1.43 1.43 0 0 0-.085 2 1.387 1.387 0 0 0 1.974.086c.568-.53.606-1.427.085-2.002zm6.18-5.75a9.701 9.701 0 0 0-13.822-.592c-3.974 3.698-4.242 9.982-.596 14.007a9.702 9.702 0 0 0 13.82.593c3.975-3.697 4.243-9.982.597-14.007zm-4.376 9.837a4.158 4.158 0 0 1-5.923-.254 4.295 4.295 0 0 1 .256-6.004 4.158 4.158 0 0 1 5.923.254c1.563 1.726 1.448 4.42-.256 6.004zm21.915-20.39l3.843-3.575c-1.313-.534-2.54-1.333-3.557-2.456-1.018-1.124-1.699-2.431-2.111-3.802l-2.298 2.139-.52-.972a1.38 1.38 0 0 0-1.895-.567 1.424 1.424 0 0 0-.56 1.92l.853 1.593-1.997 1.858-.521-.972a1.38 1.38 0 0 0-1.894-.566 1.425 1.425 0 0 0-.56 1.92l.853 1.592-1.998 1.859-.52-.972a1.375 1.375 0 0 0-1.894-.567 1.424 1.424 0 0 0-.561 1.92l.854 1.593-1.961 1.825a4.14 4.14 0 0 0-4.79.612l-.538.5a12.454 12.454 0 0 1 6.292 3.756 12.728 12.728 0 0 1 3.154 6.674l.54-.502c1.34-1.247 1.68-3.175 1.01-4.784l.416-.387.52.972a1.385 1.385 0 0 0 1.894.568c.679-.373.93-1.233.561-1.92l-.854-1.593 1.998-1.859.52.972a1.385 1.385 0 0 0 1.895.567c.678-.373.929-1.233.56-1.92l-.853-1.594 1.997-1.858.52.972a1.384 1.384 0 0 0 1.895.567c.678-.372.93-1.233.56-1.92zm8.44-11.696a1.384 1.384 0 0 1-1.975-.085 1.43 1.43 0 0 1 .085-2 1.385 1.385 0 0 1 1.974.084 1.43 1.43 0 0 1-.085 2zM92 42.56v1.036a7.24 7.24 0 0 0 0-1.036z" filter="url(#eaa2d)" mask="url(&quot;#eaa2e&quot;)" />
			</g>
		</g>
	</symbol>
	<symbol id="back" viewBox="0 0 384 384">
		<polygon points="384,170.667 81.707,170.667 158.187,94.187 128,64 0,192 128,320 158.187,289.813 81.707,213.333 384,213.333 		
			" />
	</symbol>
	<symbol id="tire" viewBox="0 0 512 512">
		<path d="M494.916,254.43C494.336,119.185,419.934,7.603,325.521,0.384l-0.008-0.008C322.278,0.128,319.019,0,315.742,0H196.275
				C152.226,0,111.872,22.852,80.64,60.646l2.628-0.657l59.46-16.998c2.406-0.674,4.992-0.282,7.074,1.109l20.872,13.901
				L191.539,44.1c2.543-1.707,5.811-1.903,8.55-0.538l29.739,14.865c-3.456,4.497-6.801,9.173-10.001,14.089l-22.946-11.469
				l-21.478,14.319c-2.867,1.911-6.596,1.911-9.463,0l-22.315-14.882L87.689,76.467L64.87,82.176
				c-3.072,4.736-6.007,9.643-8.823,14.703l9.097,7.441l20.19,13.423l20.873-13.909c2.867-1.92,6.596-1.92,9.463,0l20.873,13.901
				l20.864-13.901c2.543-1.707,5.811-1.903,8.55-0.538l30.174,15.087c-2.116,5.231-4.105,10.615-5.982,16.094l-27.401-13.696
				L141.269,135.1c-2.867,1.911-6.596,1.911-9.464,0l-20.864-13.909L90.069,135.1c-2.867,1.911-6.596,1.911-9.464,0l-25.6-17.067
				l-6.972-5.7c-12.066,25.318-20.992,53.896-26.095,84.582l6.784-6.716l24.909-25.506c1.596-1.621,3.78-2.552,6.059-2.56
				c2.185,0.068,4.471,0.887,6.084,2.5l19.567,19.558l19.567-19.558c3.328-3.337,8.73-3.337,12.066,0l19.567,19.558l19.567-19.558
				c3.328-3.337,8.73-3.337,12.066,0l10.761,10.761c-1.365,6.494-2.594,13.073-3.635,19.78c-0.742-0.393-1.502-0.785-2.125-1.408
				l-11.034-11.034L142.575,202.3c-3.337,3.328-8.738,3.328-12.066,0l-19.567-19.567L91.375,202.3
				c-3.337,3.328-8.738,3.328-12.066,0L59.81,182.801l-18.978,19.43l-22.34,22.127c-0.247,2.816-0.469,5.641-0.648,8.491
				l12.151,7.296l28.058,14.003L79.309,232.9c3.328-3.337,8.73-3.337,12.066,0l19.567,19.558l19.567-19.558
				c2.765-2.765,7.066-3.294,10.419-1.289l29.841,17.903c-0.034,2.159-0.094,4.309-0.094,6.485c0,4.531,0.085,9.028,0.23,13.5
				l-33.05-19.831l-20.881,20.898c-3.337,3.328-8.738,3.328-12.066,0l-19.567-19.567l-19.567,19.567
				c-2.594,2.594-6.554,3.251-9.856,1.596l-34.133-17.067l-4.651-2.79c-0.009,1.237-0.06,2.458-0.06,3.695
				c0,29.653,3.584,58.129,10.112,84.642l25.455-38.178c1.417-2.125,3.712-3.507,6.255-3.763c2.56-0.239,5.069,0.657,6.878,2.466
				l19.567,19.558l19.567-19.558c3.328-3.337,8.73-3.337,12.066,0l19.567,19.558l19.567-19.558c3.328-3.337,8.73-3.337,12.066,0
				l5.717,5.709c1.109,8.738,2.526,17.306,4.19,25.702c-1.792-0.239-3.533-0.905-4.907-2.278l-11.034-11.034l-19.567,19.567
				c-3.337,3.328-8.738,3.328-12.066,0l-19.567-19.567l-19.567,19.567c-3.337,3.328-8.738,3.328-12.066,0l-18.244-18.244
				L33.297,362.24c3.499,10.906,7.518,21.402,12.015,31.42l8.875-7.603l16.589-16.623c3.328-3.336,8.73-3.336,12.066,0
				l19.567,19.558l19.567-19.558c3.328-3.336,8.73-3.336,12.066,0l18.236,18.236l11.298-16.939
				c2.381-3.575,7.066-4.821,10.914-2.901l14.797,7.398c2.705,8.124,5.709,15.966,8.934,23.552l-24.627-12.314l-12.885,19.328
				c-1.417,2.125-3.721,3.507-6.263,3.763c-2.586,0.222-5.069-0.657-6.869-2.458l-19.567-19.567L108.442,407.1
				c-3.337,3.328-8.738,3.328-12.066,0l-19.567-19.567l-11.034,11.034l-12.8,10.974c9.779,18.577,21.308,35.157,34.193,49.34
				l10.948-5.478l25.156-16.768c2.867-1.92,6.596-1.92,9.463,0l20.873,13.901l20.864-13.901c2.867-1.92,6.596-1.92,9.463,0
				l20.873,13.901l15.386-10.249c3.174,4.847,6.502,9.464,9.924,13.892L209.536,467.9c-2.867,1.911-6.596,1.911-9.464,0
				l-20.864-13.909L158.336,467.9c-2.867,1.911-6.596,1.911-9.464,0l-20.864-13.909L107.136,467.9
				c-0.29,0.196-0.597,0.375-0.913,0.529l-6.366,3.183C127.718,497.126,160.794,512,196.275,512h119.467
				c2.944,0,5.939-0.119,8.969-0.35h0.009c0.213,0,0.435,0,0.649-0.017c4.198-0.324,8.644-0.939,13.508-1.835
				c75.699-13.892,137.464-95.036,152.576-203.315c2.159-16.521,3.328-33.485,3.473-50.483
				C494.925,255.991,494.916,254.438,494.916,254.43z M474.547,304.188c-14.319,102.519-72.149,178.671-142.14,189.278
				c-2.611,0.401-5.239,0.853-7.799,1.075c-0.179-0.017-0.35-0.051-0.529-0.068c-2.492-0.247-4.966-0.597-7.424-1.05
				c-0.862-0.162-1.707-0.367-2.568-0.546c-1.801-0.384-3.593-0.802-5.367-1.289c-0.939-0.265-1.877-0.538-2.807-0.828
				c-1.724-0.538-3.439-1.118-5.146-1.758c-0.87-0.316-1.749-0.631-2.611-0.981c-1.963-0.794-3.9-1.656-5.828-2.577
				c-0.555-0.265-1.126-0.503-1.681-0.776c-2.517-1.254-5.018-2.62-7.475-4.088c-0.299-0.179-0.58-0.384-0.879-0.563
				c-2.142-1.314-4.258-2.697-6.349-4.164c-0.623-0.435-1.246-0.905-1.86-1.357c-1.792-1.306-3.567-2.662-5.316-4.079
				c-0.614-0.495-1.229-0.998-1.835-1.51c-1.852-1.553-3.678-3.174-5.478-4.855c-0.427-0.393-0.853-0.776-1.28-1.178
				c-6.886-6.571-13.406-14.037-19.507-22.315c-0.205-0.282-0.41-0.572-0.623-0.853c-1.852-2.551-3.678-5.171-5.453-7.868
				c-0.179-0.273-0.35-0.538-0.529-0.802c-7.859-12.049-14.908-25.506-20.992-40.132c-0.401-0.973-0.802-1.937-1.195-2.918
				c-1.903-4.71-3.703-9.54-5.393-14.472c-0.017-0.034-0.026-0.068-0.034-0.102c-1.69-4.915-3.268-9.933-4.745-15.053
				c-0.017-0.043-0.026-0.085-0.043-0.128c-1.434-4.984-2.756-10.078-3.985-15.249c-0.111-0.461-0.213-0.939-0.324-1.399
				c-1.152-4.949-2.219-9.975-3.174-15.078c-0.034-0.196-0.077-0.384-0.111-0.58c-0.947-5.103-1.775-10.3-2.517-15.539
				c-0.137-0.93-0.256-1.86-0.375-2.79c-0.666-4.966-1.254-9.975-1.732-15.053c-0.026-0.29-0.06-0.58-0.085-0.879
				c-0.478-5.205-0.819-10.479-1.084-15.795c-0.06-1.229-0.111-2.466-0.162-3.703c-0.222-5.35-0.367-10.726-0.367-16.162
				c0-3.968,0.06-7.919,0.171-11.836c0.043-1.254,0.119-2.483,0.171-3.729c0.102-2.662,0.196-5.325,0.35-7.97
				c0.102-1.647,0.247-3.268,0.367-4.907c0.162-2.202,0.299-4.42,0.495-6.613c0.179-1.963,0.41-3.9,0.614-5.854
				c0.188-1.835,0.358-3.686,0.572-5.504c0.23-1.92,0.512-3.806,0.776-5.717c0.247-1.818,0.469-3.652,0.734-5.461
				c0.282-1.852,0.614-3.678,0.922-5.513c0.299-1.818,0.58-3.661,0.904-5.461c0.341-1.869,0.734-3.703,1.101-5.555
				c0.341-1.732,0.666-3.482,1.033-5.197c0.41-1.937,0.87-3.823,1.314-5.734c0.375-1.596,0.717-3.217,1.109-4.796
				c0.478-1.946,1.007-3.857,1.519-5.777c0.401-1.502,0.777-3.029,1.195-4.514c0.538-1.903,1.118-3.763,1.681-5.632
				c0.444-1.468,0.862-2.953,1.323-4.403c0.58-1.843,1.212-3.635,1.818-5.453c0.486-1.434,0.947-2.901,1.451-4.318
				c0.674-1.911,1.399-3.763,2.099-5.641c0.486-1.271,0.939-2.569,1.434-3.823c0.776-1.971,1.596-3.891,2.398-5.82
				c0.469-1.118,0.913-2.261,1.391-3.362c0.828-1.903,1.698-3.746,2.552-5.606c0.503-1.084,0.981-2.202,1.502-3.277
				c0.862-1.818,1.775-3.575,2.671-5.35c0.546-1.067,1.058-2.159,1.613-3.208c0.922-1.749,1.877-3.448,2.833-5.154
				c0.563-1.015,1.109-2.057,1.69-3.063c0.956-1.655,1.946-3.26,2.935-4.872c0.606-0.998,1.195-2.022,1.809-2.995
				c1.007-1.587,2.048-3.115,3.081-4.659c0.631-0.947,1.246-1.911,1.886-2.842c1.067-1.536,2.167-3.012,3.26-4.497
				c0.64-0.87,1.263-1.766,1.911-2.62c1.118-1.468,2.27-2.876,3.422-4.292c0.648-0.811,1.289-1.647,1.946-2.432
				c1.178-1.399,2.381-2.731,3.584-4.079c0.666-0.742,1.314-1.519,1.988-2.244c1.203-1.297,2.44-2.534,3.678-3.78
				c0.691-0.7,1.374-1.442,2.082-2.125c1.229-1.195,2.492-2.321,3.746-3.465c0.734-0.666,1.451-1.357,2.185-2.005
				c1.28-1.109,2.586-2.15,3.883-3.2c0.742-0.606,1.468-1.237,2.219-1.818c1.323-1.024,2.679-1.971,4.028-2.935
				c0.742-0.538,1.485-1.109,2.236-1.621c1.331-0.913,2.697-1.741,4.053-2.586c0.794-0.495,1.579-1.033,2.372-1.502
				c1.357-0.802,2.739-1.527,4.113-2.261c0.819-0.444,1.63-0.913,2.449-1.331c1.391-0.7,2.807-1.314,4.216-1.954
				c0.828-0.375,1.655-0.785,2.492-1.135c1.408-0.589,2.842-1.101,4.267-1.621c0.853-0.316,1.707-0.666,2.569-0.956
				c1.417-0.478,2.85-0.862,4.284-1.271c0.896-0.256,1.783-0.546,2.679-0.776c1.417-0.358,2.859-0.623,4.284-0.913
				c0.93-0.196,1.86-0.418,2.79-0.58c1.425-0.247,2.867-0.401,4.301-0.58c0.905-0.111,1.792-0.256,2.697-0.333
				c85.248,7.1,152.329,110.993,152.866,236.851l0.009,1.604C477.722,272.171,476.604,288.427,474.547,304.188z" />
		<path d="M252.855,151.971c-0.282-0.273-0.538-0.572-0.785-0.887l-3.081-4.019c-11.708,30.541-18.586,67.959-18.586,108.928
				c0,40.747,6.801,77.995,18.389,108.442l3.763-4.105c17.493-17.263,29.047-59.076,29.047-104.337
				C281.604,210.74,270.05,168.927,252.855,151.971z" />
		<path d="M332.806,68.262c-30.49,0-57.378,23.39-75.981,60.954l8.448,11.042c20.309,20.48,33.399,65.784,33.399,115.738
				c0,50.313-13.278,95.906-33.835,116.173l-8.61,9.404c18.62,38.272,45.764,62.157,76.578,62.157
				c57.421,0,102.4-82.458,102.4-187.733S390.227,68.262,332.806,68.262z" />
	</symbol>
	<symbol id="play-button" viewBox="0 0 512 512">
		<path d="M256,0C114.833,0,0,114.844,0,256s114.833,256,256,256s256-114.844,256-256S397.167,0,256,0z M357.771,264.969
			l-149.333,96c-1.75,1.135-3.771,1.698-5.771,1.698c-1.75,0-3.521-0.438-5.104-1.302C194.125,359.49,192,355.906,192,352V160
			c0-3.906,2.125-7.49,5.563-9.365c3.375-1.854,7.604-1.74,10.875,0.396l149.333,96c3.042,1.958,4.896,5.344,4.896,8.969
			S360.813,263.01,357.771,264.969z" />
	</symbol>
	<symbol id="truck" viewBox="0 0 612 612">
		<path d="M226.764,375.35c-28.249,0-51.078,22.91-51.078,51.16c0,28.166,22.829,51.078,51.078,51.078s51.078-22.912,51.078-51.078
			C277.841,398.26,255.013,375.35,226.764,375.35z M226.764,452.049c-14.125,0-25.54-11.498-25.54-25.541
			c0-14.123,11.415-25.539,25.54-25.539c14.124,0,25.539,11.416,25.539,25.539C252.302,440.551,240.888,452.049,226.764,452.049z
			 M612,337.561v54.541c0,13.605-11.029,24.635-24.636,24.635h-26.36c-4.763-32.684-32.929-57.812-66.927-57.812
			c-33.914,0-62.082,25.129-66.845,57.812H293.625c-4.763-32.684-32.93-57.812-66.845-57.812c-33.915,0-62.082,25.129-66.844,57.812
			h-33.012c-13.606,0-24.635-11.029-24.635-24.635v-54.541H612L612,337.561z M494.143,375.35c-28.249,0-51.16,22.91-51.16,51.16
			c0,28.166,22.912,51.078,51.16,51.078c28.166,0,51.077-22.912,51.077-51.078C545.22,398.26,522.309,375.35,494.143,375.35z
			 M494.143,452.049c-14.125,0-25.539-11.498-25.539-25.541c0-14.123,11.414-25.539,25.539-25.539
			c14.042,0,25.539,11.416,25.539,25.539C519.682,440.551,508.185,452.049,494.143,452.049z M602.293,282.637l-96.817-95.751
			c-6.159-6.077-14.453-9.526-23.076-9.526h-48.86v-18.313c0-13.631-11.004-24.635-24.635-24.635H126.907
			c-13.55,0-24.635,11.005-24.635,24.635v3.86L2.3,174.429l177.146,23.068L0,215.323l178.814,25.423L0,256.25l102.278,19.29
			l-0.007,48.403h509.712v-17.985C611.983,297.171,608.452,288.796,602.293,282.637z M560.084,285.839h-93.697
			c-2.135,0-3.86-1.724-3.86-3.859v-72.347c0-2.135,1.725-3.86,3.86-3.86h17.82c0.985,0,1.971,0.411,2.71,1.068l75.796,72.347
			C565.257,281.569,563.532,285.839,560.084,285.839z" />
	</symbol>
	<symbol id="wallet" viewBox="0 0 890.5 890.5">
		<path d="M208.1,180.56l355-96.9l-18.8-38c-12.3-24.7-42.3-34.9-67-22.6l-317.8,157.5H208.1z" />
		<path d="M673.3,86.46c-4.399,0-8.8,0.6-13.2,1.8l-83.399,22.8L322,180.56h289.1h126l-15.6-57.2
			C715.5,101.06,695.3,86.46,673.3,86.46z" />
		<path d="M789.2,215.56h-11.4h-15.5h-15.5H628.5H193.8h-57h-48h-8.9H50.1c-15.8,0-29.9,7.3-39.1,18.8c-4.2,5.3-7.4,11.4-9.2,18.1
			c-1.1,4.2-1.8,8.6-1.8,13.1v6v57v494.1c0,27.601,22.4,50,50,50h739.1c27.601,0,50-22.399,50-50v-139.5H542.4
			c-46.9,0-85-38.1-85-85v-45.8v-15.5v-15.5v-34.4c0-23,9.199-43.899,24.1-59.199c13.2-13.601,30.9-22.801,50.7-25.101
			c3.3-0.399,6.7-0.6,10.1-0.6h255.2H813h15.5h10.6v-136.5C839.2,237.96,816.8,215.56,789.2,215.56z" />
		<path d="M874.2,449.86c-5-4.6-10.9-8.1-17.5-10.4c-5.101-1.699-10.5-2.699-16.2-2.699h-1.3h-1h-15.5h-55.9H542.4
			c-27.601,0-50,22.399-50,50v24.899v15.5v15.5v55.4c0,27.6,22.399,50,50,50h296.8h1.3c5.7,0,11.1-1,16.2-2.7
			c6.6-2.2,12.5-5.8,17.5-10.4c10-9.1,16.3-22.3,16.3-36.899v-111.3C890.5,472.16,884.2,458.959,874.2,449.86z M646.8,552.36
			c0,13.8-11.2,25-25,25h-16.6c-13.8,0-25-11.2-25-25v-16.6c0-8,3.7-15.101,9.6-19.601c4.3-3.3,9.601-5.399,15.4-5.399h4.2H621.8
			c13.8,0,25,11.199,25,25V552.36L646.8,552.36z" />
	</symbol>
	<symbol id="check" viewBox="0 0 515.556 515.556">
		<path d="m0 274.226 176.549 176.886 339.007-338.672-48.67-47.997-290.337 290-128.553-128.552z" />
	</symbol>
	<symbol id="gift" viewBox="0 0 512 512">
		<path d="M32,271.692v192c0,17.664,14.368,32,32,32h160v-224H32z" />
		<path d="M480,143.692H378.752c7.264-4.96,13.504-9.888,17.856-14.304c25.824-25.952,25.824-68.192,0-94.144
			c-25.088-25.28-68.8-25.216-93.856,0c-13.888,13.92-50.688,70.592-45.6,108.448h-2.304c5.056-37.856-31.744-94.528-45.6-108.448
			c-25.088-25.216-68.8-25.216-93.856,0C89.6,61.196,89.6,103.436,115.36,129.388c4.384,4.416,10.624,9.344,17.888,14.304H32
			c-17.632,0-32,14.368-32,32v48c0,8.832,7.168,16,16,16h208v-64h64v64h208c8.832,0,16-7.168,16-16v-48
			C512,158.06,497.664,143.692,480,143.692z M222.112,142.636c0,0-1.344,1.056-5.92,1.056c-22.112,0-64.32-22.976-78.112-36.864
			c-13.408-13.504-13.408-35.52,0-49.024c6.496-6.528,15.104-10.112,24.256-10.112c9.12,0,17.728,3.584,24.224,10.112
			C208.128,79.5,229.568,134.924,222.112,142.636z M295.776,143.692c-4.544,0-5.888-1.024-5.888-1.056
			c-7.456-7.712,13.984-63.136,35.552-84.832c12.896-13.024,35.456-13.088,48.48,0c13.44,13.504,13.44,35.52,0,49.024
			C360.128,120.716,317.92,143.692,295.776,143.692z" />
		<path d="M288,271.692v224h160c17.664,0,32-14.336,32-32v-192H288z" />
	</symbol>
	<symbol id="menu" viewBox="0 0 341.333 341.333">
		<rect y="277.333" width="341.333" height="42.667" />
		<rect y="149.333" width="341.333" height="42.667" />
		<rect y="21.333" width="341.333" height="42.667" />
	</symbol>
	<symbol id="tick" viewBox="0 0 512 512">
		<path d="M383.841,171.838c-7.881-8.31-21.02-8.676-29.343-0.775L221.987,296.732l-63.204-64.893
			c-8.005-8.213-21.13-8.393-29.35-0.387c-8.213,7.998-8.386,21.137-0.388,29.35l77.492,79.561
			c4.061,4.172,9.458,6.275,14.869,6.275c5.134,0,10.268-1.896,14.288-5.694l147.373-139.762
			C391.383,193.294,391.735,180.155,383.841,171.838z" />
		<path d="M256,0C114.84,0,0,114.84,0,256s114.84,256,256,256s256-114.84,256-256S397.16,0,256,0z M256,470.487
			c-118.265,0-214.487-96.214-214.487-214.487c0-118.265,96.221-214.487,214.487-214.487c118.272,0,214.487,96.221,214.487,214.487
			C470.487,374.272,374.272,470.487,256,470.487z" />
	</symbol>
	<symbol id="youtube" viewBox="0 -77 512.00213 512">
		<path d="m501.453125 56.09375c-5.902344-21.933594-23.195313-39.222656-45.125-45.128906-40.066406-10.964844-200.332031-10.964844-200.332031-10.964844s-160.261719 0-200.328125 10.546875c-21.507813 5.902344-39.222657 23.617187-45.125 45.546875-10.542969 40.0625-10.542969 123.148438-10.542969 123.148438s0 83.503906 10.542969 123.148437c5.90625 21.929687 23.195312 39.222656 45.128906 45.128906 40.484375 10.964844 200.328125 10.964844 200.328125 10.964844s160.261719 0 200.328125-10.546875c21.933594-5.902344 39.222656-23.195312 45.128906-45.125 10.542969-40.066406 10.542969-123.148438 10.542969-123.148438s.421875-83.507812-10.546875-123.570312zm0 0" fill="#f00" />
		<path d="m204.96875 256 133.269531-76.757812-133.269531-76.757813zm0 0" fill="#fff" />
	</symbol>
	<symbol id="close-button" viewBox="0 0 357 357">
		<polygon points="357,35.7 321.3,0 178.5,142.8 35.7,0 0,35.7 142.8,178.5 0,321.3 35.7,357 178.5,214.2 321.3,357 357,321.3 
			214.2,178.5" />
	</symbol>
</svg>
