<svg display="none" xmlns="http://www.w3.org/2000/svg">
	<symbol id="viber" viewBox="0 0 322 322">
		<path id="XMLID_8_" d="M275.445,135.123c0.387-45.398-38.279-87.016-86.192-92.771c-0.953-0.113-1.991-0.285-3.09-0.467
		c-2.372-0.393-4.825-0.797-7.3-0.797c-9.82,0-12.445,6.898-13.136,11.012c-0.672,4-0.031,7.359,1.902,9.988
		c3.252,4.422,8.974,5.207,13.57,5.836c1.347,0.186,2.618,0.359,3.682,0.598c43.048,9.619,57.543,24.742,64.627,67.424
		c0.173,1.043,0.251,2.328,0.334,3.691c0.309,5.102,0.953,15.717,12.365,15.717h0.001c0.95,0,1.971-0.082,3.034-0.244
		c10.627-1.615,10.294-11.318,10.134-15.98c-0.045-1.313-0.088-2.555,0.023-3.381C275.429,135.541,275.444,135.332,275.445,135.123z
		" />
		<path id="XMLID_9_" d="M176.077,25.688c1.275,0.092,2.482,0.18,3.487,0.334c70.689,10.871,103.198,44.363,112.207,115.605
		c0.153,1.211,0.177,2.688,0.202,4.252c0.09,5.566,0.275,17.145,12.71,17.385l0.386,0.004c3.9,0,7.002-1.176,9.221-3.498
		c3.871-4.049,3.601-10.064,3.383-14.898c-0.053-1.186-0.104-2.303-0.091-3.281C318.481,68.729,255.411,2.658,182.614,0.201
		c-0.302-0.01-0.59,0.006-0.881,0.047c-0.143,0.021-0.408,0.047-0.862,0.047c-0.726,0-1.619-0.063-2.566-0.127
		C177.16,0.09,175.862,0,174.546,0c-11.593,0-13.797,8.24-14.079,13.152C159.817,24.504,170.799,25.303,176.077,25.688z" />
		<path id="XMLID_10_" d="M288.36,233.703c-1.503-1.148-3.057-2.336-4.512-3.508c-7.718-6.211-15.929-11.936-23.87-17.473
		c-1.648-1.148-3.296-2.297-4.938-3.449c-10.172-7.145-19.317-10.617-27.957-10.617c-11.637,0-21.783,6.43-30.157,19.109
		c-3.71,5.621-8.211,8.354-13.758,8.354c-3.28,0-7.007-0.936-11.076-2.783c-32.833-14.889-56.278-37.717-69.685-67.85
		c-6.481-14.564-4.38-24.084,7.026-31.832c6.477-4.396,18.533-12.58,17.679-28.252c-0.967-17.797-40.235-71.346-56.78-77.428
		c-7.005-2.576-14.365-2.6-21.915-0.06c-19.02,6.394-32.669,17.623-39.475,32.471C2.365,64.732,2.662,81.578,9.801,99.102
		c20.638,50.666,49.654,94.84,86.245,131.293c35.816,35.684,79.837,64.914,130.839,86.875c4.597,1.978,9.419,3.057,12.94,3.844
		c1.2,0.27,2.236,0.5,2.991,0.707c0.415,0.113,0.843,0.174,1.272,0.178l0.403,0.002c0.001,0,0,0,0.002,0
		c23.988,0,52.791-21.92,61.637-46.91C313.88,253.209,299.73,242.393,288.36,233.703z" />
		<path id="XMLID_11_" d="M186.687,83.564c-4.107,0.104-12.654,0.316-15.653,9.021c-1.403,4.068-1.235,7.6,0.5,10.498
		c2.546,4.252,7.424,5.555,11.861,6.27c16.091,2.582,24.355,11.48,26.008,28c0.768,7.703,5.955,13.082,12.615,13.082h0.001
		c0.492,0,0.995-0.029,1.496-0.09c8.01-0.953,11.893-6.838,11.542-17.49c0.128-11.117-5.69-23.738-15.585-33.791
		C209.543,88.98,197.574,83.301,186.687,83.564z" />
	</symbol>
	<symbol id="whatsapp" viewBox="0 0 24 24">
		<path d="m17.507 14.307-.009.075c-2.199-1.096-2.429-1.242-2.713-.816-.197.295-.771.964-.944 1.162-.175.195-.349.21-.646.075-.3-.15-1.263-.465-2.403-1.485-.888-.795-1.484-1.77-1.66-2.07-.293-.506.32-.578.878-1.634.1-.21.049-.375-.025-.524-.075-.15-.672-1.62-.922-2.206-.24-.584-.487-.51-.672-.51-.576-.05-.997-.042-1.368.344-1.614 1.774-1.207 3.604.174 5.55 2.714 3.552 4.16 4.206 6.804 5.114.714.227 1.365.195 1.88.121.574-.091 1.767-.721 2.016-1.426.255-.705.255-1.29.18-1.425-.074-.135-.27-.21-.57-.345z" />
		<path d="m20.52 3.449c-7.689-7.433-20.414-2.042-20.419 8.444 0 2.096.549 4.14 1.595 5.945l-1.696 6.162 6.335-1.652c7.905 4.27 17.661-1.4 17.665-10.449 0-3.176-1.24-6.165-3.495-8.411zm1.482 8.417c-.006 7.633-8.385 12.4-15.012 8.504l-.36-.214-3.75.975 1.005-3.645-.239-.375c-4.124-6.565.614-15.145 8.426-15.145 2.654 0 5.145 1.035 7.021 2.91 1.875 1.859 2.909 4.35 2.909 6.99z" />
	</symbol>
	<symbol id="super" viewBox="0 0 511.999 511.999">
		<path d="M115.553,396.446c-5.852-5.852-15.361-5.852-21.213,0s-5.852,15.361,0,21.213s15.361,5.852,21.213,0
			S121.405,402.298,115.553,396.446z" />
		<path d="M179.193,332.806c-40.935-40.935-107.558-40.935-148.492,0c-40.934,40.935-40.935,107.558,0,148.492
			c40.935,40.934,107.558,40.935,148.492,0C220.127,440.363,220.127,373.741,179.193,332.806z M136.767,438.872
			c-17.547,17.547-46.094,17.547-63.64,0c-17.546-17.546-17.546-46.093,0-63.64c17.546-17.546,46.093-17.546,63.64,0
			C154.313,392.778,154.313,421.325,136.767,438.872z" />
		<path d="M362.476,213.163l39.579-39.579c-14.317-5.047-27.837-12.942-39.267-24.372s-19.325-24.95-24.372-39.267l-23.669,23.669
			l-6.028-10.047c-4.267-7.168-13.455-9.415-20.571-5.138c-7.106,4.247-9.405,13.465-5.138,20.571l9.882,16.469l-20.571,20.571
			l-6.028-10.047c-4.278-7.157-13.455-9.415-20.571-5.138c-7.106,4.247-9.405,13.465-5.138,20.571l9.882,16.469l-20.571,20.571
			l-6.028-10.047c-4.226-7.209-13.455-9.415-20.571-5.138c-7.106,4.247-9.405,13.465-5.138,20.571l9.882,16.469l-20.194,20.194
			c-16.713-7.926-37.269-5.157-51.079,8.653l-5.553,5.553c25.368,4.996,49.576,17.256,69.193,36.873
			c19.616,19.616,31.876,43.824,36.872,69.192l5.553-5.553c13.81-13.81,16.579-34.367,8.653-51.079l4.284-4.284l6.028,10.047
			c4.213,7.068,13.426,9.434,20.571,5.138c7.106-4.247,9.405-13.465,5.138-20.571l-9.882-16.469l20.571-20.571l6.028,10.047
			c4.213,7.068,13.426,9.434,20.571,5.138c7.106-4.247,9.405-13.465,5.138-20.571l-9.882-16.469l20.571-20.571l6.028,10.047
			c4.213,7.068,13.426,9.434,20.571,5.138c7.106-4.247,9.405-13.465,5.138-20.571L362.476,213.163z" />
		<path d="M490.068,21.931c-29.241-29.241-76.825-29.241-106.066,0c-29.241,29.241-29.24,76.825,0,106.066
			c29.241,29.241,76.825,29.241,106.066,0C519.309,98.756,519.309,51.172,490.068,21.931z M447.642,85.57
			c-5.857,5.857-15.356,5.857-21.213,0c-5.857-5.857-5.857-15.356,0-21.213s15.356-5.858,21.213,0
			C453.499,70.214,453.499,79.713,447.642,85.57z" />
	</symbol>
	<symbol id="back" viewBox="0 0 384 384">
		<polygon points="384,170.667 81.707,170.667 158.187,94.187 128,64 0,192 128,320 158.187,289.813 81.707,213.333 384,213.333 		
			" />
	</symbol>
	<symbol id="tire" viewBox="0 0 612 612">
		<path d="M226.764,375.35c-28.249,0-51.078,22.91-51.078,51.16c0,28.166,22.829,51.078,51.078,51.078s51.078-22.912,51.078-51.078
			C277.841,398.26,255.013,375.35,226.764,375.35z M226.764,452.049c-14.125,0-25.54-11.498-25.54-25.541
			c0-14.123,11.415-25.539,25.54-25.539c14.124,0,25.539,11.416,25.539,25.539C252.302,440.551,240.888,452.049,226.764,452.049z
			 M612,337.561v54.541c0,13.605-11.029,24.635-24.636,24.635h-26.36c-4.763-32.684-32.929-57.812-66.927-57.812
			c-33.914,0-62.082,25.129-66.845,57.812H293.625c-4.763-32.684-32.93-57.812-66.845-57.812c-33.915,0-62.082,25.129-66.844,57.812
			h-33.012c-13.606,0-24.635-11.029-24.635-24.635v-54.541H612L612,337.561z M494.143,375.35c-28.249,0-51.16,22.91-51.16,51.16
			c0,28.166,22.912,51.078,51.16,51.078c28.166,0,51.077-22.912,51.077-51.078C545.22,398.26,522.309,375.35,494.143,375.35z
			 M494.143,452.049c-14.125,0-25.539-11.498-25.539-25.541c0-14.123,11.414-25.539,25.539-25.539
			c14.042,0,25.539,11.416,25.539,25.539C519.682,440.551,508.185,452.049,494.143,452.049z M602.293,282.637l-96.817-95.751
			c-6.159-6.077-14.453-9.526-23.076-9.526h-48.86v-18.313c0-13.631-11.004-24.635-24.635-24.635H126.907
			c-13.55,0-24.635,11.005-24.635,24.635v3.86L2.3,174.429l177.146,23.068L0,215.323l178.814,25.423L0,256.25l102.278,19.29
			l-0.007,48.403h509.712v-17.985C611.983,297.171,608.452,288.796,602.293,282.637z M560.084,285.839h-93.697
			c-2.135,0-3.86-1.724-3.86-3.859v-72.347c0-2.135,1.725-3.86,3.86-3.86h17.82c0.985,0,1.971,0.411,2.71,1.068l75.796,72.347
			C565.257,281.569,563.532,285.839,560.084,285.839z" />
	</symbol>
	<symbol id="play-button" viewBox="0 0 512 512">
		<path d="M256,0C114.833,0,0,114.844,0,256s114.833,256,256,256s256-114.844,256-256S397.167,0,256,0z M357.771,264.969
			l-149.333,96c-1.75,1.135-3.771,1.698-5.771,1.698c-1.75,0-3.521-0.438-5.104-1.302C194.125,359.49,192,355.906,192,352V160
			c0-3.906,2.125-7.49,5.563-9.365c3.375-1.854,7.604-1.74,10.875,0.396l149.333,96c3.042,1.958,4.896,5.344,4.896,8.969
			S360.813,263.01,357.771,264.969z" />
	</symbol>
	<symbol id="truck" viewBox="0 0 612 612">
		<path d="M226.764,375.35c-28.249,0-51.078,22.91-51.078,51.16c0,28.166,22.829,51.078,51.078,51.078s51.078-22.912,51.078-51.078
			C277.841,398.26,255.013,375.35,226.764,375.35z M226.764,452.049c-14.125,0-25.54-11.498-25.54-25.541
			c0-14.123,11.415-25.539,25.54-25.539c14.124,0,25.539,11.416,25.539,25.539C252.302,440.551,240.888,452.049,226.764,452.049z
			 M612,337.561v54.541c0,13.605-11.029,24.635-24.636,24.635h-26.36c-4.763-32.684-32.929-57.812-66.927-57.812
			c-33.914,0-62.082,25.129-66.845,57.812H293.625c-4.763-32.684-32.93-57.812-66.845-57.812c-33.915,0-62.082,25.129-66.844,57.812
			h-33.012c-13.606,0-24.635-11.029-24.635-24.635v-54.541H612L612,337.561z M494.143,375.35c-28.249,0-51.16,22.91-51.16,51.16
			c0,28.166,22.912,51.078,51.16,51.078c28.166,0,51.077-22.912,51.077-51.078C545.22,398.26,522.309,375.35,494.143,375.35z
			 M494.143,452.049c-14.125,0-25.539-11.498-25.539-25.541c0-14.123,11.414-25.539,25.539-25.539
			c14.042,0,25.539,11.416,25.539,25.539C519.682,440.551,508.185,452.049,494.143,452.049z M602.293,282.637l-96.817-95.751
			c-6.159-6.077-14.453-9.526-23.076-9.526h-48.86v-18.313c0-13.631-11.004-24.635-24.635-24.635H126.907
			c-13.55,0-24.635,11.005-24.635,24.635v3.86L2.3,174.429l177.146,23.068L0,215.323l178.814,25.423L0,256.25l102.278,19.29
			l-0.007,48.403h509.712v-17.985C611.983,297.171,608.452,288.796,602.293,282.637z M560.084,285.839h-93.697
			c-2.135,0-3.86-1.724-3.86-3.859v-72.347c0-2.135,1.725-3.86,3.86-3.86h17.82c0.985,0,1.971,0.411,2.71,1.068l75.796,72.347
			C565.257,281.569,563.532,285.839,560.084,285.839z" />
	</symbol>
	<symbol id="wallet" viewBox="0 0 890.5 890.5">
		<path d="M208.1,180.56l355-96.9l-18.8-38c-12.3-24.7-42.3-34.9-67-22.6l-317.8,157.5H208.1z" />
		<path d="M673.3,86.46c-4.399,0-8.8,0.6-13.2,1.8l-83.399,22.8L322,180.56h289.1h126l-15.6-57.2
			C715.5,101.06,695.3,86.46,673.3,86.46z" />
		<path d="M789.2,215.56h-11.4h-15.5h-15.5H628.5H193.8h-57h-48h-8.9H50.1c-15.8,0-29.9,7.3-39.1,18.8c-4.2,5.3-7.4,11.4-9.2,18.1
			c-1.1,4.2-1.8,8.6-1.8,13.1v6v57v494.1c0,27.601,22.4,50,50,50h739.1c27.601,0,50-22.399,50-50v-139.5H542.4
			c-46.9,0-85-38.1-85-85v-45.8v-15.5v-15.5v-34.4c0-23,9.199-43.899,24.1-59.199c13.2-13.601,30.9-22.801,50.7-25.101
			c3.3-0.399,6.7-0.6,10.1-0.6h255.2H813h15.5h10.6v-136.5C839.2,237.96,816.8,215.56,789.2,215.56z" />
		<path d="M874.2,449.86c-5-4.6-10.9-8.1-17.5-10.4c-5.101-1.699-10.5-2.699-16.2-2.699h-1.3h-1h-15.5h-55.9H542.4
			c-27.601,0-50,22.399-50,50v24.899v15.5v15.5v55.4c0,27.6,22.399,50,50,50h296.8h1.3c5.7,0,11.1-1,16.2-2.7
			c6.6-2.2,12.5-5.8,17.5-10.4c10-9.1,16.3-22.3,16.3-36.899v-111.3C890.5,472.16,884.2,458.959,874.2,449.86z M646.8,552.36
			c0,13.8-11.2,25-25,25h-16.6c-13.8,0-25-11.2-25-25v-16.6c0-8,3.7-15.101,9.6-19.601c4.3-3.3,9.601-5.399,15.4-5.399h4.2H621.8
			c13.8,0,25,11.199,25,25V552.36L646.8,552.36z" />
	</symbol>
	<symbol id="check" viewBox="0 0 515.556 515.556">
		<path d="m0 274.226 176.549 176.886 339.007-338.672-48.67-47.997-290.337 290-128.553-128.552z" />
	</symbol>
	<symbol id="gift" viewBox="0 0 512 512">
		<path d="M32,271.692v192c0,17.664,14.368,32,32,32h160v-224H32z" />
		<path d="M480,143.692H378.752c7.264-4.96,13.504-9.888,17.856-14.304c25.824-25.952,25.824-68.192,0-94.144
			c-25.088-25.28-68.8-25.216-93.856,0c-13.888,13.92-50.688,70.592-45.6,108.448h-2.304c5.056-37.856-31.744-94.528-45.6-108.448
			c-25.088-25.216-68.8-25.216-93.856,0C89.6,61.196,89.6,103.436,115.36,129.388c4.384,4.416,10.624,9.344,17.888,14.304H32
			c-17.632,0-32,14.368-32,32v48c0,8.832,7.168,16,16,16h208v-64h64v64h208c8.832,0,16-7.168,16-16v-48
			C512,158.06,497.664,143.692,480,143.692z M222.112,142.636c0,0-1.344,1.056-5.92,1.056c-22.112,0-64.32-22.976-78.112-36.864
			c-13.408-13.504-13.408-35.52,0-49.024c6.496-6.528,15.104-10.112,24.256-10.112c9.12,0,17.728,3.584,24.224,10.112
			C208.128,79.5,229.568,134.924,222.112,142.636z M295.776,143.692c-4.544,0-5.888-1.024-5.888-1.056
			c-7.456-7.712,13.984-63.136,35.552-84.832c12.896-13.024,35.456-13.088,48.48,0c13.44,13.504,13.44,35.52,0,49.024
			C360.128,120.716,317.92,143.692,295.776,143.692z" />
		<path d="M288,271.692v224h160c17.664,0,32-14.336,32-32v-192H288z" />
	</symbol>
	<symbol id="menu" viewBox="0 0 341.333 341.333">
		<rect y="277.333" width="341.333" height="42.667" />
		<rect y="149.333" width="341.333" height="42.667" />
		<rect y="21.333" width="341.333" height="42.667" />
	</symbol>
	<symbol id="tick" viewBox="0 0 512 512">
		<path d="M383.841,171.838c-7.881-8.31-21.02-8.676-29.343-0.775L221.987,296.732l-63.204-64.893
			c-8.005-8.213-21.13-8.393-29.35-0.387c-8.213,7.998-8.386,21.137-0.388,29.35l77.492,79.561
			c4.061,4.172,9.458,6.275,14.869,6.275c5.134,0,10.268-1.896,14.288-5.694l147.373-139.762
			C391.383,193.294,391.735,180.155,383.841,171.838z" />
		<path d="M256,0C114.84,0,0,114.84,0,256s114.84,256,256,256s256-114.84,256-256S397.16,0,256,0z M256,470.487
			c-118.265,0-214.487-96.214-214.487-214.487c0-118.265,96.221-214.487,214.487-214.487c118.272,0,214.487,96.221,214.487,214.487
			C470.487,374.272,374.272,470.487,256,470.487z" />
	</symbol>
	<symbol id="youtube" viewBox="0 -77 512.00213 512">
		<path d="m501.453125 56.09375c-5.902344-21.933594-23.195313-39.222656-45.125-45.128906-40.066406-10.964844-200.332031-10.964844-200.332031-10.964844s-160.261719 0-200.328125 10.546875c-21.507813 5.902344-39.222657 23.617187-45.125 45.546875-10.542969 40.0625-10.542969 123.148438-10.542969 123.148438s0 83.503906 10.542969 123.148437c5.90625 21.929687 23.195312 39.222656 45.128906 45.128906 40.484375 10.964844 200.328125 10.964844 200.328125 10.964844s160.261719 0 200.328125-10.546875c21.933594-5.902344 39.222656-23.195312 45.128906-45.125 10.542969-40.066406 10.542969-123.148438 10.542969-123.148438s.421875-83.507812-10.546875-123.570312zm0 0" fill="#f00" />
		<path d="m204.96875 256 133.269531-76.757812-133.269531-76.757813zm0 0" fill="#fff" />
	</symbol>
	<symbol id="close-button" viewBox="0 0 357 357">
		<polygon points="357,35.7 321.3,0 178.5,142.8 35.7,0 0,35.7 142.8,178.5 0,321.3 35.7,357 178.5,214.2 321.3,357 357,321.3 
			214.2,178.5" />
	</symbol>
</svg>
