<svg xmlns="http://www.w3.org/2000/svg" width="135" height="134" viewBox="0 0 135 134">
	<defs>
		<mask id="kxnsb" width="2.5" height="2.52" x="-1.25" y="-1.26">
			<path fill="#fff" d="M30.7 21.7h73.6v71.6H30.7z" />
			<path d="M64.438 59.038v21.96H49.124c-1.687 0-3.063-1.405-3.063-3.137V59.038zM92 49.625v4.707c0 .865-.686 1.568-1.531 1.568H70.562v-6.275h-6.125V55.9H44.532c-.845 0-1.531-.703-1.531-1.568v-4.707c0-1.728 1.375-3.137 3.062-3.137h9.69c-.695-.486-1.292-.97-1.712-1.403-2.465-2.544-2.465-6.685.003-9.23 2.398-2.472 6.582-2.472 8.983 0 1.326 1.366 4.848 6.921 4.364 10.633h.22c-.487-3.712 3.035-9.267 4.364-10.633 2.398-2.472 6.582-2.477 8.983 0 2.471 2.545 2.471 6.686 0 9.23-.417.433-1.014.917-1.71 1.403h9.69c1.691 0 3.063 1.41 3.063 3.137zM60.854 38.068a3.214 3.214 0 0 0-2.318-.992c-.876 0-1.7.352-2.321.992-1.284 1.323-1.284 3.482 0 4.806 1.32 1.36 5.359 3.614 7.475 3.614.438 0 .567-.103.567-.103.713-.757-1.339-6.19-3.403-8.317zm17.931 4.806c1.287-1.324 1.287-3.483 0-4.806-1.246-1.284-3.405-1.277-4.64 0-2.064 2.127-4.115 7.56-3.402 8.317 0 .002.129.103.564.103 2.119 0 6.158-2.253 7.478-3.614zm10.152 16.164V77.86c0 1.732-1.372 3.137-3.062 3.137H70.563v-21.96z" />
		</mask>
		<filter id="kxnsa" width="167.2" height="174.2" x="-16.1" y="-25.1" filterUnits="userSpaceOnUse">
			<feOffset dy="9" in="SourceGraphic" result="FeOffset1187Out" />
			<feGaussianBlur in="FeOffset1187Out" result="FeGaussianBlur1188Out" stdDeviation="14.719999999999999 14.719999999999999" />
		</filter>
		<linearGradient id="kxnsc" x1="67" x2="68" y1="34" y2="81" gradientUnits="userSpaceOnUse">
			<stop offset="0" stop-color="#ff0054" />
			<stop offset="1" stop-color="#ff0042" />
		</linearGradient>
		<filter id="kxnsd" width="200%" height="200%" x="-50%" y="-50%">
			<feGaussianBlur in="SourceGraphic" result="FeGaussianBlur1209Out" stdDeviation="0 0" />
		</filter>
		<mask id="kxnse">
			<path fill="#fff" d="M64.438 59.038v21.96H49.124c-1.687 0-3.063-1.405-3.063-3.137V59.038zM92 49.625v4.707c0 .865-.686 1.568-1.531 1.568H70.562v-6.275h-6.125V55.9H44.532c-.845 0-1.531-.703-1.531-1.568v-4.707c0-1.728 1.375-3.137 3.062-3.137h9.69c-.695-.486-1.292-.97-1.712-1.403-2.465-2.544-2.465-6.685.003-9.23 2.398-2.472 6.582-2.472 8.983 0 1.326 1.366 4.848 6.921 4.364 10.633h.22c-.487-3.712 3.035-9.267 4.364-10.633 2.398-2.472 6.582-2.477 8.983 0 2.471 2.545 2.471 6.686 0 9.23-.417.433-1.014.917-1.71 1.403h9.69c1.691 0 3.063 1.41 3.063 3.137zM60.854 38.068a3.214 3.214 0 0 0-2.318-.992c-.876 0-1.7.352-2.321.992-1.284 1.323-1.284 3.482 0 4.806 1.32 1.36 5.359 3.614 7.475 3.614.438 0 .567-.103.567-.103.713-.757-1.339-6.19-3.403-8.317zm17.931 4.806c1.287-1.324 1.287-3.483 0-4.806-1.246-1.284-3.405-1.277-4.64 0-2.064 2.127-4.115 7.56-3.402 8.317 0 .002.129.103.564.103 2.119 0 6.158-2.253 7.478-3.614zm10.152 16.164V77.86c0 1.732-1.372 3.137-3.062 3.137H70.563v-21.96z" />
		</mask>
	</defs>
	<g>
		<g>
			<g filter="url(#kxnsa)">
				<path fill="none" stroke="#cb0035" stroke-opacity=".36" stroke-width="24.6" d="M64.438 59.038v21.96H49.124c-1.687 0-3.063-1.405-3.063-3.137V59.038zM92 49.625v4.707c0 .865-.686 1.568-1.531 1.568H70.562v-6.275h-6.125V55.9H44.532c-.845 0-1.531-.703-1.531-1.568v-4.707c0-1.728 1.375-3.137 3.062-3.137h9.69c-.695-.486-1.292-.97-1.712-1.403-2.465-2.544-2.465-6.685.003-9.23 2.398-2.472 6.582-2.472 8.983 0 1.326 1.366 4.848 6.921 4.364 10.633h.22c-.487-3.712 3.035-9.267 4.364-10.633 2.398-2.472 6.582-2.477 8.983 0 2.471 2.545 2.471 6.686 0 9.23-.417.433-1.014.917-1.71 1.403h9.69c1.691 0 3.063 1.41 3.063 3.137zM60.854 38.068a3.214 3.214 0 0 0-2.318-.992c-.876 0-1.7.352-2.321.992-1.284 1.323-1.284 3.482 0 4.806 1.32 1.36 5.359 3.614 7.475 3.614.438 0 .567-.103.567-.103.713-.757-1.339-6.19-3.403-8.317zm17.931 4.806c1.287-1.324 1.287-3.483 0-4.806-1.246-1.284-3.405-1.277-4.64 0-2.064 2.127-4.115 7.56-3.402 8.317 0 .002.129.103.564.103 2.119 0 6.158-2.253 7.478-3.614zm10.152 16.164V77.86c0 1.732-1.372 3.137-3.062 3.137H70.563v-21.96z" mask="url(&quot;#kxnsb&quot;)" />
				<path fill="#cb0035" fill-opacity=".36" d="M64.438 59.038v21.96H49.124c-1.687 0-3.063-1.405-3.063-3.137V59.038zM92 49.625v4.707c0 .865-.686 1.568-1.531 1.568H70.562v-6.275h-6.125V55.9H44.532c-.845 0-1.531-.703-1.531-1.568v-4.707c0-1.728 1.375-3.137 3.062-3.137h9.69c-.695-.486-1.292-.97-1.712-1.403-2.465-2.544-2.465-6.685.003-9.23 2.398-2.472 6.582-2.472 8.983 0 1.326 1.366 4.848 6.921 4.364 10.633h.22c-.487-3.712 3.035-9.267 4.364-10.633 2.398-2.472 6.582-2.477 8.983 0 2.471 2.545 2.471 6.686 0 9.23-.417.433-1.014.917-1.71 1.403h9.69c1.691 0 3.063 1.41 3.063 3.137zM60.854 38.068a3.214 3.214 0 0 0-2.318-.992c-.876 0-1.7.352-2.321.992-1.284 1.323-1.284 3.482 0 4.806 1.32 1.36 5.359 3.614 7.475 3.614.438 0 .567-.103.567-.103.713-.757-1.339-6.19-3.403-8.317zm17.931 4.806c1.287-1.324 1.287-3.483 0-4.806-1.246-1.284-3.405-1.277-4.64 0-2.064 2.127-4.115 7.56-3.402 8.317 0 .002.129.103.564.103 2.119 0 6.158-2.253 7.478-3.614zm10.152 16.164V77.86c0 1.732-1.372 3.137-3.062 3.137H70.563v-21.96z" />
			</g>
			<path d="M64.438 59.038v21.96H49.124c-1.687 0-3.063-1.405-3.063-3.137V59.038zM92 49.625v4.707c0 .865-.686 1.568-1.531 1.568H70.562v-6.275h-6.125V55.9H44.532c-.845 0-1.531-.703-1.531-1.568v-4.707c0-1.728 1.375-3.137 3.062-3.137h9.69c-.695-.486-1.292-.97-1.712-1.403-2.465-2.544-2.465-6.685.003-9.23 2.398-2.472 6.582-2.472 8.983 0 1.326 1.366 4.848 6.921 4.364 10.633h.22c-.487-3.712 3.035-9.267 4.364-10.633 2.398-2.472 6.582-2.477 8.983 0 2.471 2.545 2.471 6.686 0 9.23-.417.433-1.014.917-1.71 1.403h9.69c1.691 0 3.063 1.41 3.063 3.137zM60.854 38.068a3.214 3.214 0 0 0-2.318-.992c-.876 0-1.7.352-2.321.992-1.284 1.323-1.284 3.482 0 4.806 1.32 1.36 5.359 3.614 7.475 3.614.438 0 .567-.103.567-.103.713-.757-1.339-6.19-3.403-8.317zm17.931 4.806c1.287-1.324 1.287-3.483 0-4.806-1.246-1.284-3.405-1.277-4.64 0-2.064 2.127-4.115 7.56-3.402 8.317 0 .002.129.103.564.103 2.119 0 6.158-2.253 7.478-3.614zm10.152 16.164V77.86c0 1.732-1.372 3.137-3.062 3.137H70.563v-21.96z" />
			<path fill="url(#kxnsc)" d="M64.438 59.038v21.96H49.124c-1.687 0-3.063-1.405-3.063-3.137V59.038zM92 49.625v4.707c0 .865-.686 1.568-1.531 1.568H70.562v-6.275h-6.125V55.9H44.532c-.845 0-1.531-.703-1.531-1.568v-4.707c0-1.728 1.375-3.137 3.062-3.137h9.69c-.695-.486-1.292-.97-1.712-1.403-2.465-2.544-2.465-6.685.003-9.23 2.398-2.472 6.582-2.472 8.983 0 1.326 1.366 4.848 6.921 4.364 10.633h.22c-.487-3.712 3.035-9.267 4.364-10.633 2.398-2.472 6.582-2.477 8.983 0 2.471 2.545 2.471 6.686 0 9.23-.417.433-1.014.917-1.71 1.403h9.69c1.691 0 3.063 1.41 3.063 3.137zM60.854 38.068a3.214 3.214 0 0 0-2.318-.992c-.876 0-1.7.352-2.321.992-1.284 1.323-1.284 3.482 0 4.806 1.32 1.36 5.359 3.614 7.475 3.614.438 0 .567-.103.567-.103.713-.757-1.339-6.19-3.403-8.317zm17.931 4.806c1.287-1.324 1.287-3.483 0-4.806-1.246-1.284-3.405-1.277-4.64 0-2.064 2.127-4.115 7.56-3.402 8.317 0 .002.129.103.564.103 2.119 0 6.158-2.253 7.478-3.614zm10.152 16.164V77.86c0 1.732-1.372 3.137-3.062 3.137H70.563v-21.96z" />
			<path fill="#f2abba" fill-opacity=".5" d="M43 83V56.341c.005.862.69 1.559 1.531 1.559h19.907v-6.275h6.124V57.9H90.47c.845 0 1.53-.703 1.53-1.568v-4.707c0-1.728-1.371-3.137-3.062-3.137h-9.69c.696-.486 1.293-.97 1.71-1.403 2.471-2.544 2.471-6.685 0-9.23-2.401-2.477-6.585-2.472-8.983 0-1.329 1.366-4.85 6.921-4.364 10.633h-.22c.484-3.712-3.038-9.267-4.364-10.633-2.401-2.472-6.585-2.472-8.983 0-2.468 2.545-2.468 6.686-.003 9.23.42.433 1.017.917 1.712 1.403h-9.69c-1.682 0-3.055 1.402-3.062 3.123V32h49v51zm3.062-21.962V79.86c0 1.732 1.376 3.137 3.063 3.137h15.313v-21.96zM43 51.625v4.717-4.73.013zm17.854-11.557c2.064 2.127 4.116 7.56 3.403 8.317 0 0-.129.103-.567.103-2.116 0-6.155-2.253-7.475-3.614-1.284-1.324-1.284-3.483 0-4.806a3.216 3.216 0 0 1 2.321-.992c.873 0 1.697.352 2.318.992zm10.453 8.42c-.435 0-.564-.1-.564-.103-.713-.757 1.338-6.19 3.403-8.317 1.234-1.277 3.393-1.284 4.64 0 1.286 1.323 1.286 3.482 0 4.806-1.32 1.36-5.36 3.614-7.48 3.614zm-.745 12.55v21.96h15.313c1.69 0 3.062-1.405 3.062-3.137V61.038z" filter="url(#kxnsd)" mask="url(&quot;#kxnse&quot;)" />
		</g>
	</g>
</svg>
