<svg xmlns="http://www.w3.org/2000/svg" width="124" height="124" viewBox="0 0 124 124"><defs><mask id="ostxb" width="2.66" height="2.66" x="-1.33" y="-1.33"><path fill="#fff" d="M31.7 21.7h61.6v61.6H31.7z"/><path d="M50.627 41.041l13.205-6.816c1.026-.533 2.272-.092 2.783.977l.782 1.645-14.75 4.194zm23.351-2.476l.648 2.476H57.38l10.583-3.007 3.465-.988c.183-.051.365-.078.548-.078.914 0 1.754.632 2.003 1.597zm4.886 6.155v5.909H66.532a3.444 3.444 0 0 0-2.526 1.113 3.742 3.742 0 0 0-1.001 2.562v4.813c0 2.03 1.583 3.68 3.531 3.68h12.328v6.037c0 1.195-.93 2.165-2.077 2.165h-30.71c-1.146 0-2.077-.97-2.077-2.165V44.72c0-.194.029-.384.075-.566a2.2 2.2 0 0 1 .382-.784 2.044 2.044 0 0 1 1.625-.813H76.79c1.147 0 2.077.969 2.073 2.163zM81 54.295v4.817a2.2 2.2 0 0 1-.677 1.598 2.025 2.025 0 0 1-1.4.567H66.535c-1.146 0-2.077-.97-2.077-2.165v-4.817c0-1.195.93-2.164 2.077-2.164h12.386a2.025 2.025 0 0 1 1.4.567c.416.394.678.965.678 1.597zm-10.126 2.84v-.719c0-.597-.465-1.082-1.038-1.082h-.69c-.241 0-.461.091-.64.233a1.078 1.078 0 0 0-.399.85v.717c0 .598.465 1.083 1.039 1.083h.69c.573 0 1.038-.485 1.038-1.083z"/></mask><filter id="ostxa" width="155.2" height="164.2" x="-15.1" y="-25.1" filterUnits="userSpaceOnUse"><feOffset dy="9" in="SourceGraphic" result="FeOffset1023Out"/><feGaussianBlur in="FeOffset1023Out" result="FeGaussianBlur1024Out" stdDeviation="14.719999999999999 14.719999999999999"/></filter><linearGradient id="ostxc" x1="62" x2="63" y1="34" y2="71" gradientUnits="userSpaceOnUse"><stop offset="0" stop-color="#ff0054"/><stop offset="1" stop-color="#ff0042"/></linearGradient><filter id="ostxd" width="200%" height="200%" x="-50%" y="-50%"><feGaussianBlur in="SourceGraphic" result="FeGaussianBlur1045Out" stdDeviation="0 0"/></filter><mask id="ostxe"><path fill="#fff" d="M50.627 41.041l13.205-6.816c1.026-.533 2.272-.092 2.783.977l.782 1.645-14.75 4.194zm23.351-2.476l.648 2.476H57.38l10.583-3.007 3.465-.988c.183-.051.365-.078.548-.078.914 0 1.754.632 2.003 1.597zm4.886 6.155v5.909H66.532a3.444 3.444 0 0 0-2.526 1.113 3.742 3.742 0 0 0-1.001 2.562v4.813c0 2.03 1.583 3.68 3.531 3.68h12.328v6.037c0 1.195-.93 2.165-2.077 2.165h-30.71c-1.146 0-2.077-.97-2.077-2.165V44.72c0-.194.029-.384.075-.566a2.2 2.2 0 0 1 .382-.784 2.044 2.044 0 0 1 1.625-.813H76.79c1.147 0 2.077.969 2.073 2.163zM81 54.295v4.817a2.2 2.2 0 0 1-.677 1.598 2.025 2.025 0 0 1-1.4.567H66.535c-1.146 0-2.077-.97-2.077-2.165v-4.817c0-1.195.93-2.164 2.077-2.164h12.386a2.025 2.025 0 0 1 1.4.567c.416.394.678.965.678 1.597zm-10.126 2.84v-.719c0-.597-.465-1.082-1.038-1.082h-.69c-.241 0-.461.091-.64.233a1.078 1.078 0 0 0-.399.85v.717c0 .598.465 1.083 1.039 1.083h.69c.573 0 1.038-.485 1.038-1.083z"/></mask></defs><g><g><g filter="url(#ostxa)"><path fill="none" stroke="#cb0035" stroke-opacity=".36" stroke-width="24.6" d="M50.627 41.041l13.205-6.816c1.026-.533 2.272-.092 2.783.977l.782 1.645-14.75 4.194zm23.351-2.476l.648 2.476H57.38l10.583-3.007 3.465-.988c.183-.051.365-.078.548-.078.914 0 1.754.632 2.003 1.597zm4.886 6.155v5.909H66.532a3.444 3.444 0 0 0-2.526 1.113 3.742 3.742 0 0 0-1.001 2.562v4.813c0 2.03 1.583 3.68 3.531 3.68h12.328v6.037c0 1.195-.93 2.165-2.077 2.165h-30.71c-1.146 0-2.077-.97-2.077-2.165V44.72c0-.194.029-.384.075-.566a2.2 2.2 0 0 1 .382-.784 2.044 2.044 0 0 1 1.625-.813H76.79c1.147 0 2.077.969 2.073 2.163zM81 54.295v4.817a2.2 2.2 0 0 1-.677 1.598 2.025 2.025 0 0 1-1.4.567H66.535c-1.146 0-2.077-.97-2.077-2.165v-4.817c0-1.195.93-2.164 2.077-2.164h12.386a2.025 2.025 0 0 1 1.4.567c.416.394.678.965.678 1.597zm-10.126 2.84v-.719c0-.597-.465-1.082-1.038-1.082h-.69c-.241 0-.461.091-.64.233a1.078 1.078 0 0 0-.399.85v.717c0 .598.465 1.083 1.039 1.083h.69c.573 0 1.038-.485 1.038-1.083z" mask="url(&quot;#ostxb&quot;)"/><path fill="#cb0035" fill-opacity=".36" d="M50.627 41.041l13.205-6.816c1.026-.533 2.272-.092 2.783.977l.782 1.645-14.75 4.194zm23.351-2.476l.648 2.476H57.38l10.583-3.007 3.465-.988c.183-.051.365-.078.548-.078.914 0 1.754.632 2.003 1.597zm4.886 6.155v5.909H66.532a3.444 3.444 0 0 0-2.526 1.113 3.742 3.742 0 0 0-1.001 2.562v4.813c0 2.03 1.583 3.68 3.531 3.68h12.328v6.037c0 1.195-.93 2.165-2.077 2.165h-30.71c-1.146 0-2.077-.97-2.077-2.165V44.72c0-.194.029-.384.075-.566a2.2 2.2 0 0 1 .382-.784 2.044 2.044 0 0 1 1.625-.813H76.79c1.147 0 2.077.969 2.073 2.163zM81 54.295v4.817a2.2 2.2 0 0 1-.677 1.598 2.025 2.025 0 0 1-1.4.567H66.535c-1.146 0-2.077-.97-2.077-2.165v-4.817c0-1.195.93-2.164 2.077-2.164h12.386a2.025 2.025 0 0 1 1.4.567c.416.394.678.965.678 1.597zm-10.126 2.84v-.719c0-.597-.465-1.082-1.038-1.082h-.69c-.241 0-.461.091-.64.233a1.078 1.078 0 0 0-.399.85v.717c0 .598.465 1.083 1.039 1.083h.69c.573 0 1.038-.485 1.038-1.083z"/></g><path d="M50.627 41.041l13.205-6.816c1.026-.533 2.272-.092 2.783.977l.782 1.645-14.75 4.194zm23.351-2.476l.648 2.476H57.38l10.583-3.007 3.465-.988c.183-.051.365-.078.548-.078.914 0 1.754.632 2.003 1.597zm4.886 6.155v5.909H66.532a3.444 3.444 0 0 0-2.526 1.113 3.742 3.742 0 0 0-1.001 2.562v4.813c0 2.03 1.583 3.68 3.531 3.68h12.328v6.037c0 1.195-.93 2.165-2.077 2.165h-30.71c-1.146 0-2.077-.97-2.077-2.165V44.72c0-.194.029-.384.075-.566a2.2 2.2 0 0 1 .382-.784 2.044 2.044 0 0 1 1.625-.813H76.79c1.147 0 2.077.969 2.073 2.163zM81 54.295v4.817a2.2 2.2 0 0 1-.677 1.598 2.025 2.025 0 0 1-1.4.567H66.535c-1.146 0-2.077-.97-2.077-2.165v-4.817c0-1.195.93-2.164 2.077-2.164h12.386a2.025 2.025 0 0 1 1.4.567c.416.394.678.965.678 1.597zm-10.126 2.84v-.719c0-.597-.465-1.082-1.038-1.082h-.69c-.241 0-.461.091-.64.233a1.078 1.078 0 0 0-.399.85v.717c0 .598.465 1.083 1.039 1.083h.69c.573 0 1.038-.485 1.038-1.083z"/><path fill="url(#ostxc)" d="M50.627 41.041l13.205-6.816c1.026-.533 2.272-.092 2.783.977l.782 1.645-14.75 4.194zm23.351-2.476l.648 2.476H57.38l10.583-3.007 3.465-.988c.183-.051.365-.078.548-.078.914 0 1.754.632 2.003 1.597zm4.886 6.155v5.909H66.532a3.444 3.444 0 0 0-2.526 1.113 3.742 3.742 0 0 0-1.001 2.562v4.813c0 2.03 1.583 3.68 3.531 3.68h12.328v6.037c0 1.195-.93 2.165-2.077 2.165h-30.71c-1.146 0-2.077-.97-2.077-2.165V44.72c0-.194.029-.384.075-.566a2.2 2.2 0 0 1 .382-.784 2.044 2.044 0 0 1 1.625-.813H76.79c1.147 0 2.077.969 2.073 2.163zM81 54.295v4.817a2.2 2.2 0 0 1-.677 1.598 2.025 2.025 0 0 1-1.4.567H66.535c-1.146 0-2.077-.97-2.077-2.165v-4.817c0-1.195.93-2.164 2.077-2.164h12.386a2.025 2.025 0 0 1 1.4.567c.416.394.678.965.678 1.597zm-10.126 2.84v-.719c0-.597-.465-1.082-1.038-1.082h-.69c-.241 0-.461.091-.64.233a1.078 1.078 0 0 0-.399.85v.717c0 .598.465 1.083 1.039 1.083h.69c.573 0 1.038-.485 1.038-1.083z"/><path fill="#f2abba" fill-opacity=".5" d="M44 73v-2.15c.009 1.188.936 2.149 2.078 2.149h30.709c1.146 0 2.077-.97 2.077-2.165v-6.038H66.536c-1.948 0-3.531-1.649-3.531-3.68v-4.812c0-.995.382-1.9 1.001-2.562a3.444 3.444 0 0 1 2.526-1.113h12.332V46.72c.004-1.194-.926-2.163-2.073-2.163H46.08c-.656 0-1.242.315-1.624.813a2.2 2.2 0 0 0-.382.784 2.338 2.338 0 0 0-.075.551V32h37v41zm8.646-29.959l14.75-4.194-.78-1.645c-.512-1.07-1.758-1.51-2.784-.977L50.627 43.04zm21.332-2.476c-.25-.965-1.089-1.597-2.003-1.597-.183 0-.365.027-.548.078l-3.465.988-10.583 3.007h17.247l-.648-2.476zM44 46.72v24.131-24.146.015zm36.323 7.978a2.025 2.025 0 0 0-1.4-.568H66.535c-1.146 0-2.077.97-2.077 2.165v4.817c0 1.195.93 2.165 2.077 2.165h12.386a2.025 2.025 0 0 0 1.4-.567A2.2 2.2 0 0 0 81 61.112v-4.817c0-.632-.262-1.203-.677-1.597zm-9.449 4.436c0 .598-.465 1.083-1.038 1.083h-.69c-.574 0-1.039-.485-1.039-1.083v-.718c0-.346.154-.653.399-.849.179-.142.399-.233.64-.233h.69c.573 0 1.038.485 1.038 1.082z" filter="url(#ostxd)" mask="url(&quot;#ostxe&quot;)"/></g></g></svg>