<svg xmlns="http://www.w3.org/2000/svg" width="166" height="166" viewBox="0 0 166 166"><defs><mask id="7z14b" width="2.31" height="2.31" x="-1.15" y="-1.15"><path fill="#fff" d="M30.7 21.7h104.6v104.6H30.7z"/><path d="M123 73.999c0 22.055-17.943 40-40 40s-40-17.945-40-40c0-22.056 17.943-40 40-40s40 17.944 40 40zm-23.333 0a1.67 1.67 0 0 0-.765-1.402l-23.334-15a1.66 1.66 0 0 0-1.699-.061c-.537.292-.869.852-.869 1.463v30a1.664 1.664 0 0 0 1.667 1.667c.312 0 .628-.088.901-.266l23.334-15c.475-.307.765-.835.765-1.401z"/></mask><filter id="7z14a" width="198.2" height="207.2" x="-16.1" y="-25.1" filterUnits="userSpaceOnUse"><feOffset dy="9" in="SourceGraphic" result="FeOffset1228Out"/><feGaussianBlur in="FeOffset1228Out" result="FeGaussianBlur1229Out" stdDeviation="14.719999999999999 14.719999999999999"/></filter><linearGradient id="7z14c" x1="83" x2="83" y1="34" y2="114" gradientUnits="userSpaceOnUse"><stop offset="0" stop-color="#ff0054"/><stop offset="1" stop-color="#ff0042"/></linearGradient><filter id="7z14d" width="200%" height="200%" x="-50%" y="-50%"><feGaussianBlur in="SourceGraphic" result="FeGaussianBlur1250Out" stdDeviation="0 0"/></filter><mask id="7z14e"><path fill="#fff" d="M123 73.999c0 22.055-17.943 40-40 40s-40-17.945-40-40c0-22.056 17.943-40 40-40s40 17.944 40 40zm-23.333 0a1.67 1.67 0 0 0-.765-1.402l-23.334-15a1.66 1.66 0 0 0-1.699-.061c-.537.292-.869.852-.869 1.463v30a1.664 1.664 0 0 0 1.667 1.667c.312 0 .628-.088.901-.266l23.334-15c.475-.307.765-.835.765-1.401z"/></mask></defs><g><g><g filter="url(#7z14a)"><path fill="none" stroke="#cb0035" stroke-opacity=".36" stroke-width="24.6" d="M123 73.999c0 22.055-17.943 40-40 40s-40-17.945-40-40c0-22.056 17.943-40 40-40s40 17.944 40 40zm-23.333 0a1.67 1.67 0 0 0-.765-1.402l-23.334-15a1.66 1.66 0 0 0-1.699-.061c-.537.292-.869.852-.869 1.463v30a1.664 1.664 0 0 0 1.667 1.667c.312 0 .628-.088.901-.266l23.334-15c.475-.307.765-.835.765-1.401z" mask="url(&quot;#7z14b&quot;)"/><path fill="#cb0035" fill-opacity=".36" d="M123 73.999c0 22.055-17.943 40-40 40s-40-17.945-40-40c0-22.056 17.943-40 40-40s40 17.944 40 40zm-23.333 0a1.67 1.67 0 0 0-.765-1.402l-23.334-15a1.66 1.66 0 0 0-1.699-.061c-.537.292-.869.852-.869 1.463v30a1.664 1.664 0 0 0 1.667 1.667c.312 0 .628-.088.901-.266l23.334-15c.475-.307.765-.835.765-1.401z"/></g><path d="M123 73.999c0 22.055-17.943 40-40 40s-40-17.945-40-40c0-22.056 17.943-40 40-40s40 17.944 40 40zm-23.333 0a1.67 1.67 0 0 0-.765-1.402l-23.334-15a1.66 1.66 0 0 0-1.699-.061c-.537.292-.869.852-.869 1.463v30a1.664 1.664 0 0 0 1.667 1.667c.312 0 .628-.088.901-.266l23.334-15c.475-.307.765-.835.765-1.401z"/><path fill="url(#7z14c)" d="M123 73.999c0 22.055-17.943 40-40 40s-40-17.945-40-40c0-22.056 17.943-40 40-40s40 17.944 40 40zm-23.333 0a1.67 1.67 0 0 0-.765-1.402l-23.334-15a1.66 1.66 0 0 0-1.699-.061c-.537.292-.869.852-.869 1.463v30a1.664 1.664 0 0 0 1.667 1.667c.312 0 .628-.088.901-.266l23.334-15c.475-.307.765-.835.765-1.401z"/><path fill="#f2abba" fill-opacity=".5" d="M43 116V76.048c.027 22.033 17.96 39.95 40 39.95 22.057 0 40-17.944 40-40 0-22.055-17.943-40-40-40-22.04 0-39.973 17.918-40 39.951V32h80v84zm0-40.001v.05-.1.05zm56.667 0c0 .566-.29 1.094-.765 1.401l-23.334 15a1.66 1.66 0 0 1-1.699.062A1.664 1.664 0 0 1 73 90.999v-30c0-.611.332-1.17.87-1.463a1.66 1.66 0 0 1 1.698.061l23.334 15c.475.307.765.835.765 1.402z" filter="url(#7z14d)" mask="url(&quot;#7z14e&quot;)"/></g></g></svg>