<svg xmlns="http://www.w3.org/2000/svg" width="135" height="133" viewBox="0 0 135 133"><defs><mask id="bbvbb" width="2.5" height="2.52" x="-1.25" y="-1.26"><path fill="#fff" d="M30.7 21.7h73.6v71.6H30.7z"/><path d="M53.736 72.13a1.387 1.387 0 0 1-1.974-.086 1.43 1.43 0 0 1 .085-2 1.385 1.385 0 0 1 1.974.084 1.432 1.432 0 0 1-.085 2.002zm5.668 6.256a9.702 9.702 0 0 1-13.821-.593c-3.646-4.025-3.378-10.31.596-14.007A9.701 9.701 0 0 1 60 64.38c3.646 4.025 3.378 10.31-.596 14.007zM55.88 68.211a4.158 4.158 0 0 0-5.923-.254 4.295 4.295 0 0 0-.256 6.004 4.158 4.158 0 0 0 5.923.254c1.704-1.585 1.819-4.278.256-6.004zm22.513-12.793a1.424 1.424 0 0 1-.561 1.92 1.384 1.384 0 0 1-1.894-.567l-.521-.972-1.997 1.858.853 1.593a1.426 1.426 0 0 1-.56 1.921 1.385 1.385 0 0 1-1.894-.567l-.521-.972-1.998 1.859.854 1.592a1.426 1.426 0 0 1-.56 1.921 1.385 1.385 0 0 1-1.895-.568l-.52-.972-.416.387c.67 1.609.33 3.537-1.01 4.784l-.54.502a12.728 12.728 0 0 0-3.154-6.674 12.454 12.454 0 0 0-6.292-3.755l.539-.501a4.14 4.14 0 0 1 4.789-.612l1.96-1.825-.853-1.593a1.424 1.424 0 0 1 .56-1.92c.68-.375 1.53-.13 1.895.567l.52.972 1.998-1.859-.854-1.593a1.425 1.425 0 0 1 .56-1.92 1.38 1.38 0 0 1 1.895.567l.52.972 1.998-1.858-.854-1.594a1.424 1.424 0 0 1 .561-1.92 1.38 1.38 0 0 1 1.894.568l.52.972 2.299-2.14c.412 1.372 1.093 2.679 2.11 3.803 1.019 1.123 2.245 1.922 3.558 2.456l-3.843 3.575zm11.364-9.117a6.93 6.93 0 0 1-9.872-.424c-2.605-2.876-2.414-7.363.425-10.005a6.929 6.929 0 0 1 9.873.424c2.604 2.874 2.413 7.364-.426 10.005zm-3.694-6.173a1.385 1.385 0 0 0-1.974-.084 1.43 1.43 0 0 0-.085 2 1.384 1.384 0 0 0 1.974.085 1.43 1.43 0 0 0 .085-2.001z"/></mask><filter id="bbvba" width="167.2" height="174.2" x="-16.1" y="-25.1" filterUnits="userSpaceOnUse"><feOffset dy="9" in="SourceGraphic" result="FeOffset1105Out"/><feGaussianBlur in="FeOffset1105Out" result="FeGaussianBlur1106Out" stdDeviation="14.719999999999999 14.719999999999999"/></filter><linearGradient id="bbvbc" x1="68.01" x2="67.02" y1="34.01" y2="80.99" gradientUnits="userSpaceOnUse"><stop offset="0" stop-color="#ff0054"/><stop offset="1" stop-color="#ff0042"/></linearGradient><filter id="bbvbd" width="200%" height="200%" x="-50%" y="-50%"><feGaussianBlur in="SourceGraphic" result="FeGaussianBlur1127Out" stdDeviation="0 0"/></filter><mask id="bbvbe"><path fill="#fff" d="M53.736 72.13a1.387 1.387 0 0 1-1.974-.086 1.43 1.43 0 0 1 .085-2 1.385 1.385 0 0 1 1.974.084 1.432 1.432 0 0 1-.085 2.002zm5.668 6.256a9.702 9.702 0 0 1-13.821-.593c-3.646-4.025-3.378-10.31.596-14.007A9.701 9.701 0 0 1 60 64.38c3.646 4.025 3.378 10.31-.596 14.007zM55.88 68.211a4.158 4.158 0 0 0-5.923-.254 4.295 4.295 0 0 0-.256 6.004 4.158 4.158 0 0 0 5.923.254c1.704-1.585 1.819-4.278.256-6.004zm22.513-12.793a1.424 1.424 0 0 1-.561 1.92 1.384 1.384 0 0 1-1.894-.567l-.521-.972-1.997 1.858.853 1.593a1.426 1.426 0 0 1-.56 1.921 1.385 1.385 0 0 1-1.894-.567l-.521-.972-1.998 1.859.854 1.592a1.426 1.426 0 0 1-.56 1.921 1.385 1.385 0 0 1-1.895-.568l-.52-.972-.416.387c.67 1.609.33 3.537-1.01 4.784l-.54.502a12.728 12.728 0 0 0-3.154-6.674 12.454 12.454 0 0 0-6.292-3.755l.539-.501a4.14 4.14 0 0 1 4.789-.612l1.96-1.825-.853-1.593a1.424 1.424 0 0 1 .56-1.92c.68-.375 1.53-.13 1.895.567l.52.972 1.998-1.859-.854-1.593a1.425 1.425 0 0 1 .56-1.92 1.38 1.38 0 0 1 1.895.567l.52.972 1.998-1.858-.854-1.594a1.424 1.424 0 0 1 .561-1.92 1.38 1.38 0 0 1 1.894.568l.52.972 2.299-2.14c.412 1.372 1.093 2.679 2.11 3.803 1.019 1.123 2.245 1.922 3.558 2.456l-3.843 3.575zm11.364-9.117a6.93 6.93 0 0 1-9.872-.424c-2.605-2.876-2.414-7.363.425-10.005a6.929 6.929 0 0 1 9.873.424c2.604 2.874 2.413 7.364-.426 10.005zm-3.694-6.173a1.385 1.385 0 0 0-1.974-.084 1.43 1.43 0 0 0-.085 2 1.384 1.384 0 0 0 1.974.085 1.43 1.43 0 0 0 .085-2.001z"/></mask></defs><g><g><g filter="url(#bbvba)"><path fill="none" stroke="#cb0035" stroke-opacity=".36" stroke-width="24.6" d="M53.736 72.13a1.387 1.387 0 0 1-1.974-.086 1.43 1.43 0 0 1 .085-2 1.385 1.385 0 0 1 1.974.084 1.432 1.432 0 0 1-.085 2.002zm5.668 6.256a9.702 9.702 0 0 1-13.821-.593c-3.646-4.025-3.378-10.31.596-14.007A9.701 9.701 0 0 1 60 64.38c3.646 4.025 3.378 10.31-.596 14.007zM55.88 68.211a4.158 4.158 0 0 0-5.923-.254 4.295 4.295 0 0 0-.256 6.004 4.158 4.158 0 0 0 5.923.254c1.704-1.585 1.819-4.278.256-6.004zm22.513-12.793a1.424 1.424 0 0 1-.561 1.92 1.384 1.384 0 0 1-1.894-.567l-.521-.972-1.997 1.858.853 1.593a1.426 1.426 0 0 1-.56 1.921 1.385 1.385 0 0 1-1.894-.567l-.521-.972-1.998 1.859.854 1.592a1.426 1.426 0 0 1-.56 1.921 1.385 1.385 0 0 1-1.895-.568l-.52-.972-.416.387c.67 1.609.33 3.537-1.01 4.784l-.54.502a12.728 12.728 0 0 0-3.154-6.674 12.454 12.454 0 0 0-6.292-3.755l.539-.501a4.14 4.14 0 0 1 4.789-.612l1.96-1.825-.853-1.593a1.424 1.424 0 0 1 .56-1.92c.68-.375 1.53-.13 1.895.567l.52.972 1.998-1.859-.854-1.593a1.425 1.425 0 0 1 .56-1.92 1.38 1.38 0 0 1 1.895.567l.52.972 1.998-1.858-.854-1.594a1.424 1.424 0 0 1 .561-1.92 1.38 1.38 0 0 1 1.894.568l.52.972 2.299-2.14c.412 1.372 1.093 2.679 2.11 3.803 1.019 1.123 2.245 1.922 3.558 2.456l-3.843 3.575zm11.364-9.117a6.93 6.93 0 0 1-9.872-.424c-2.605-2.876-2.414-7.363.425-10.005a6.929 6.929 0 0 1 9.873.424c2.604 2.874 2.413 7.364-.426 10.005zm-3.694-6.173a1.385 1.385 0 0 0-1.974-.084 1.43 1.43 0 0 0-.085 2 1.384 1.384 0 0 0 1.974.085 1.43 1.43 0 0 0 .085-2.001z" mask="url(&quot;#bbvbb&quot;)"/><path fill="#cb0035" fill-opacity=".36" d="M53.736 72.13a1.387 1.387 0 0 1-1.974-.086 1.43 1.43 0 0 1 .085-2 1.385 1.385 0 0 1 1.974.084 1.432 1.432 0 0 1-.085 2.002zm5.668 6.256a9.702 9.702 0 0 1-13.821-.593c-3.646-4.025-3.378-10.31.596-14.007A9.701 9.701 0 0 1 60 64.38c3.646 4.025 3.378 10.31-.596 14.007zM55.88 68.211a4.158 4.158 0 0 0-5.923-.254 4.295 4.295 0 0 0-.256 6.004 4.158 4.158 0 0 0 5.923.254c1.704-1.585 1.819-4.278.256-6.004zm22.513-12.793a1.424 1.424 0 0 1-.561 1.92 1.384 1.384 0 0 1-1.894-.567l-.521-.972-1.997 1.858.853 1.593a1.426 1.426 0 0 1-.56 1.921 1.385 1.385 0 0 1-1.894-.567l-.521-.972-1.998 1.859.854 1.592a1.426 1.426 0 0 1-.56 1.921 1.385 1.385 0 0 1-1.895-.568l-.52-.972-.416.387c.67 1.609.33 3.537-1.01 4.784l-.54.502a12.728 12.728 0 0 0-3.154-6.674 12.454 12.454 0 0 0-6.292-3.755l.539-.501a4.14 4.14 0 0 1 4.789-.612l1.96-1.825-.853-1.593a1.424 1.424 0 0 1 .56-1.92c.68-.375 1.53-.13 1.895.567l.52.972 1.998-1.859-.854-1.593a1.425 1.425 0 0 1 .56-1.92 1.38 1.38 0 0 1 1.895.567l.52.972 1.998-1.858-.854-1.594a1.424 1.424 0 0 1 .561-1.92 1.38 1.38 0 0 1 1.894.568l.52.972 2.299-2.14c.412 1.372 1.093 2.679 2.11 3.803 1.019 1.123 2.245 1.922 3.558 2.456l-3.843 3.575zm11.364-9.117a6.93 6.93 0 0 1-9.872-.424c-2.605-2.876-2.414-7.363.425-10.005a6.929 6.929 0 0 1 9.873.424c2.604 2.874 2.413 7.364-.426 10.005zm-3.694-6.173a1.385 1.385 0 0 0-1.974-.084 1.43 1.43 0 0 0-.085 2 1.384 1.384 0 0 0 1.974.085 1.43 1.43 0 0 0 .085-2.001z"/></g><path d="M53.736 72.13a1.387 1.387 0 0 1-1.974-.086 1.43 1.43 0 0 1 .085-2 1.385 1.385 0 0 1 1.974.084 1.432 1.432 0 0 1-.085 2.002zm5.668 6.256a9.702 9.702 0 0 1-13.821-.593c-3.646-4.025-3.378-10.31.596-14.007A9.701 9.701 0 0 1 60 64.38c3.646 4.025 3.378 10.31-.596 14.007zM55.88 68.211a4.158 4.158 0 0 0-5.923-.254 4.295 4.295 0 0 0-.256 6.004 4.158 4.158 0 0 0 5.923.254c1.704-1.585 1.819-4.278.256-6.004zm22.513-12.793a1.424 1.424 0 0 1-.561 1.92 1.384 1.384 0 0 1-1.894-.567l-.521-.972-1.997 1.858.853 1.593a1.426 1.426 0 0 1-.56 1.921 1.385 1.385 0 0 1-1.894-.567l-.521-.972-1.998 1.859.854 1.592a1.426 1.426 0 0 1-.56 1.921 1.385 1.385 0 0 1-1.895-.568l-.52-.972-.416.387c.67 1.609.33 3.537-1.01 4.784l-.54.502a12.728 12.728 0 0 0-3.154-6.674 12.454 12.454 0 0 0-6.292-3.755l.539-.501a4.14 4.14 0 0 1 4.789-.612l1.96-1.825-.853-1.593a1.424 1.424 0 0 1 .56-1.92c.68-.375 1.53-.13 1.895.567l.52.972 1.998-1.859-.854-1.593a1.425 1.425 0 0 1 .56-1.92 1.38 1.38 0 0 1 1.895.567l.52.972 1.998-1.858-.854-1.594a1.424 1.424 0 0 1 .561-1.92 1.38 1.38 0 0 1 1.894.568l.52.972 2.299-2.14c.412 1.372 1.093 2.679 2.11 3.803 1.019 1.123 2.245 1.922 3.558 2.456l-3.843 3.575zm11.364-9.117a6.93 6.93 0 0 1-9.872-.424c-2.605-2.876-2.414-7.363.425-10.005a6.929 6.929 0 0 1 9.873.424c2.604 2.874 2.413 7.364-.426 10.005zm-3.694-6.173a1.385 1.385 0 0 0-1.974-.084 1.43 1.43 0 0 0-.085 2 1.384 1.384 0 0 0 1.974.085 1.43 1.43 0 0 0 .085-2.001z"/><path fill="url(#bbvbc)" d="M53.736 72.13a1.387 1.387 0 0 1-1.974-.086 1.43 1.43 0 0 1 .085-2 1.385 1.385 0 0 1 1.974.084 1.432 1.432 0 0 1-.085 2.002zm5.668 6.256a9.702 9.702 0 0 1-13.821-.593c-3.646-4.025-3.378-10.31.596-14.007A9.701 9.701 0 0 1 60 64.38c3.646 4.025 3.378 10.31-.596 14.007zM55.88 68.211a4.158 4.158 0 0 0-5.923-.254 4.295 4.295 0 0 0-.256 6.004 4.158 4.158 0 0 0 5.923.254c1.704-1.585 1.819-4.278.256-6.004zm22.513-12.793a1.424 1.424 0 0 1-.561 1.92 1.384 1.384 0 0 1-1.894-.567l-.521-.972-1.997 1.858.853 1.593a1.426 1.426 0 0 1-.56 1.921 1.385 1.385 0 0 1-1.894-.567l-.521-.972-1.998 1.859.854 1.592a1.426 1.426 0 0 1-.56 1.921 1.385 1.385 0 0 1-1.895-.568l-.52-.972-.416.387c.67 1.609.33 3.537-1.01 4.784l-.54.502a12.728 12.728 0 0 0-3.154-6.674 12.454 12.454 0 0 0-6.292-3.755l.539-.501a4.14 4.14 0 0 1 4.789-.612l1.96-1.825-.853-1.593a1.424 1.424 0 0 1 .56-1.92c.68-.375 1.53-.13 1.895.567l.52.972 1.998-1.859-.854-1.593a1.425 1.425 0 0 1 .56-1.92 1.38 1.38 0 0 1 1.895.567l.52.972 1.998-1.858-.854-1.594a1.424 1.424 0 0 1 .561-1.92 1.38 1.38 0 0 1 1.894.568l.52.972 2.299-2.14c.412 1.372 1.093 2.679 2.11 3.803 1.019 1.123 2.245 1.922 3.558 2.456l-3.843 3.575zm11.364-9.117a6.93 6.93 0 0 1-9.872-.424c-2.605-2.876-2.414-7.363.425-10.005a6.929 6.929 0 0 1 9.873.424c2.604 2.874 2.413 7.364-.426 10.005zm-3.694-6.173a1.385 1.385 0 0 0-1.974-.084 1.43 1.43 0 0 0-.085 2 1.384 1.384 0 0 0 1.974.085 1.43 1.43 0 0 0 .085-2.001z"/><path fill="#f2abba" fill-opacity=".5" d="M43 83V32h49v10.56a7.086 7.086 0 0 0-1.816-4.264 6.929 6.929 0 0 0-9.873-.424c-2.839 2.642-3.03 7.13-.425 10.005a6.93 6.93 0 0 0 9.872.424A7.1 7.1 0 0 0 92 43.596V83zm10.821-10.872a1.385 1.385 0 0 0-1.974-.084 1.43 1.43 0 0 0-.085 2 1.387 1.387 0 0 0 1.974.086c.568-.53.606-1.427.085-2.002zm6.18-5.75a9.701 9.701 0 0 0-13.822-.592c-3.974 3.698-4.242 9.982-.596 14.007a9.702 9.702 0 0 0 13.82.593c3.975-3.697 4.243-9.982.597-14.007zm-4.376 9.837a4.158 4.158 0 0 1-5.923-.254 4.295 4.295 0 0 1 .256-6.004 4.158 4.158 0 0 1 5.923.254c1.563 1.726 1.448 4.42-.256 6.004zm21.915-20.39l3.843-3.575c-1.313-.534-2.54-1.333-3.557-2.456-1.018-1.124-1.699-2.431-2.111-3.802l-2.298 2.139-.52-.972a1.38 1.38 0 0 0-1.895-.567 1.424 1.424 0 0 0-.56 1.92l.853 1.593-1.997 1.858-.521-.972a1.38 1.38 0 0 0-1.894-.566 1.425 1.425 0 0 0-.56 1.92l.853 1.592-1.998 1.859-.52-.972a1.375 1.375 0 0 0-1.894-.567 1.424 1.424 0 0 0-.561 1.92l.854 1.593-1.961 1.825a4.14 4.14 0 0 0-4.79.612l-.538.5a12.454 12.454 0 0 1 6.292 3.756 12.728 12.728 0 0 1 3.154 6.674l.54-.502c1.34-1.247 1.68-3.175 1.01-4.784l.416-.387.52.972a1.385 1.385 0 0 0 1.894.568c.679-.373.93-1.233.561-1.92l-.854-1.593 1.998-1.859.52.972a1.385 1.385 0 0 0 1.895.567c.678-.373.929-1.233.56-1.92l-.853-1.594 1.997-1.858.52.972a1.384 1.384 0 0 0 1.895.567c.678-.372.93-1.233.56-1.92zm8.44-11.696a1.384 1.384 0 0 1-1.975-.085 1.43 1.43 0 0 1 .085-2 1.385 1.385 0 0 1 1.974.084 1.43 1.43 0 0 1-.085 2zM92 42.56v1.036a7.24 7.24 0 0 0 0-1.036z" filter="url(#bbvbd)" mask="url(&quot;#bbvbe&quot;)"/></g></g></svg>