<svg xmlns="http://www.w3.org/2000/svg" width="133" height="138" viewBox="0 0 133 138"><defs><mask id="hetdb" width="2.52" height="2.49" x="-1.26" y="-1.25"><path fill="#fff" d="M30.7 22.7h71.6v74.6H30.7z"/><path d="M90 59.999a40.584 40.584 0 0 1-.342 4.93c-1.486 10.574-7.561 18.499-15.007 19.855-.478.087-.915.147-1.328.179-.021.002-.043.002-.064.002-.299.022-.594.034-.883.034h-11.75c-3.49 0-6.744-1.452-9.484-3.944l.626-.31a.796.796 0 0 0 .09-.054l2.053-1.357 2.052 1.357a.84.84 0 0 0 .931 0l2.053-1.357 2.052 1.357a.84.84 0 0 0 .93 0l2.025-1.34a21.258 21.258 0 0 1-.976-1.356l-1.513 1.001-2.053-1.357a.839.839 0 0 0-.93 0l-2.053 1.357-2.053-1.357a.839.839 0 0 0-.93 0l-2.475 1.637-1.077.535c-1.267-1.384-2.401-3.004-3.363-4.817l1.259-1.073 1.085-1.077 1.925 1.911a.845.845 0 0 0 1.187 0l1.924-1.911 1.925 1.911a.843.843 0 0 0 1.292-.128l1.267-1.887 2.422 1.202a30.548 30.548 0 0 1-.879-2.3l-1.455-.722a.842.842 0 0 0-1.074.283l-1.11 1.654-1.795-1.781a.843.843 0 0 0-1.186 0l-1.925 1.91-1.924-1.91a.843.843 0 0 0-1.187 0L46.65 72.7l-.873.742a29.286 29.286 0 0 1-1.181-3.068l2.73-4.068 1.795 1.782a.844.844 0 0 0 1.187 0l1.924-1.911 1.925 1.91a.844.844 0 0 0 1.187 0l1.924-1.91 1.085 1.077a.829.829 0 0 0 .483.223 36.414 36.414 0 0 1-.412-2.51l-.562-.557a.843.843 0 0 0-1.187 0l-1.925 1.91-1.924-1.91a.843.843 0 0 0-1.187 0l-1.925 1.91-1.924-1.91a.847.847 0 0 0-.677-.241.845.845 0 0 0-.615.367l-2.503 3.729A34.385 34.385 0 0 1 43 59.999c0-.12.005-.24.006-.361l.457.272 3.357 1.666a.841.841 0 0 0 .97-.155l1.924-1.91 1.925 1.91a.842.842 0 0 0 1.187 0l2.054-2.04 3.25 1.936a40.253 40.253 0 0 1-.022-1.318c0-.212.005-.423.009-.633l-2.935-1.75a.845.845 0 0 0-1.025.127l-1.925 1.91-1.924-1.91a.843.843 0 0 0-1.187 0l-2.09 2.075-2.76-1.368-1.195-.712c.017-.279.04-.554.063-.829l2.198-2.161 1.866-1.898 1.918 1.905a.845.845 0 0 0 1.187 0l1.924-1.912 1.925 1.912a.845.845 0 0 0 1.187 0l1.924-1.912 1.085 1.078c.062.061.137.099.21.138.102-.655.223-1.298.357-1.932l-1.058-1.051a.842.842 0 0 0-1.187 0l-1.925 1.91-1.924-1.91a.842.842 0 0 0-1.187 0l-1.925 1.91-1.924-1.91a.898.898 0 0 0-.599-.244.839.839 0 0 0-.595.25l-2.45 2.49-.668.656c.502-2.996 1.38-5.787 2.567-8.26l.686.557 2.518 1.666a.843.843 0 0 0 .93 0l2.053-1.357 2.053 1.357a.843.843 0 0 0 .93 0l2.113-1.397 2.695 1.337c.185-.535.38-1.06.588-1.572l-2.967-1.472a.843.843 0 0 0-.841.052l-2.052 1.357-2.053-1.357a.84.84 0 0 0-.931 0l-2.053 1.358-1.986-1.31-.895-.728c.277-.494.566-.973.868-1.435l2.244-.558 5.502-1.56 2.195 1.452a.84.84 0 0 0 .93 0l2.113-1.398 2.257 1.12c.315-.48.644-.936.984-1.375L61 39.253a.847.847 0 0 0-.841.052l-2.052 1.358-2.053-1.358a.85.85 0 0 0-.696-.108l-5.848 1.66-.259.064c3.072-3.69 7.041-5.922 11.374-5.922h11.75c.322 0 .643.012.961.037 9.287.705 16.605 11.602 16.662 24.81v.153zm-1.678-.007v-.156c-.054-12.291-6.651-22.437-15.036-23.13-.09.008-.176.02-.265.032-.141.017-.283.033-.423.056-.092.016-.183.038-.275.057-.14.029-.282.055-.421.089-.088.023-.176.051-.264.076-.14.04-.282.078-.421.124-.085.029-.169.063-.253.094-.14.05-.281.1-.42.158-.082.034-.163.074-.245.11-.138.063-.277.123-.414.192-.08.04-.16.086-.241.13-.135.072-.271.143-.405.22-.078.047-.155.1-.233.147-.133.082-.268.163-.399.252-.073.05-.147.106-.22.158-.132.094-.266.187-.396.288-.074.057-.145.119-.218.177-.127.102-.256.205-.382.313-.072.063-.143.13-.215.195-.123.112-.247.222-.368.34-.07.065-.137.138-.205.206-.122.122-.243.243-.362.37-.066.07-.13.146-.195.218-.119.132-.237.262-.353.398-.064.077-.127.16-.191.239-.113.138-.227.275-.337.419-.063.083-.125.17-.188.255-.107.145-.215.29-.32.44-.063.09-.124.185-.186.277-.101.15-.204.3-.303.455-.06.094-.118.195-.178.293-.097.158-.194.314-.288.476-.058.097-.111.2-.167.298-.094.167-.188.333-.278.503-.055.103-.105.21-.159.314-.088.174-.178.345-.263.523-.05.104-.098.213-.148.32-.084.181-.169.361-.25.547-.048.108-.091.219-.137.329-.08.187-.16.375-.236.567-.049.124-.093.25-.141.374-.069.183-.14.364-.207.55-.05.139-.095.283-.142.423-.06.177-.122.352-.18.532-.045.142-.086.287-.13.43-.055.183-.112.364-.165.55-.04.145-.078.294-.117.44-.05.188-.103.375-.15.565-.038.154-.072.312-.109.468-.043.187-.089.372-.129.56-.036.168-.068.338-.101.508-.037.181-.075.36-.109.543-.032.176-.06.355-.089.532-.03.18-.063.358-.09.539-.026.177-.048.356-.073.533-.025.187-.053.372-.076.558-.02.179-.038.359-.056.538-.02.191-.043.38-.06.572-.02.213-.033.43-.05.646-.011.16-.025.318-.035.478-.015.259-.025.52-.035.78l-.017.363a37.623 37.623 0 0 0 .035 3.096c.027.52.06 1.034.107 1.543l.009.085a37.067 37.067 0 0 0 .207 1.743c.073.511.154 1.02.247 1.518l.011.056c.094.498.2.99.312 1.473l.032.136c.121.506.251 1.002.392 1.49l.005.012c.145.5.3.99.466 1.47l.004.01c.166.48.343.953.53 1.413l.118.285a24.106 24.106 0 0 0 2.064 3.919c.018.025.035.052.052.078.175.264.354.52.537.768l.061.084c.6.808 1.241 1.537 1.919 2.18l.125.115a14.05 14.05 0 0 0 .72.622c.172.137.346.27.523.398.06.043.121.09.183.13.205.145.413.28.624.408.03.017.057.038.087.056.241.143.487.276.735.399.054.026.11.049.165.076.19.09.38.173.573.25.085.035.172.066.257.096a8.933 8.933 0 0 0 1.31.38c.085.017.168.037.253.053.242.045.485.078.73.102l.052.007c.252-.022.51-.065.767-.105 6.884-1.036 12.572-8.473 13.98-18.484a39.02 39.02 0 0 0 .327-4.713zm-19.304.006c0 4.42-1.136 8.504-2.857 10.19l-.37.4c-1.14-2.973-1.809-6.611-1.809-10.59 0-4 .677-7.655 1.828-10.638l.303.393c.025.031.05.06.078.087 1.69 1.656 2.827 5.739 2.827 10.158zm15.108 0c0 10.281-4.424 18.334-10.072 18.334-3.03 0-5.7-2.333-7.532-6.07l.847-.918c2.022-1.98 3.328-6.433 3.328-11.346 0-4.878-1.287-9.302-3.285-11.302l-.83-1.079c1.829-3.668 4.473-5.952 7.472-5.952 5.648 0 10.072 8.053 10.072 18.333z"/></mask><filter id="hetda" width="165.2" height="177.2" x="-16.1" y="-24.1" filterUnits="userSpaceOnUse"><feOffset dy="9" in="SourceGraphic" result="FeOffset1146Out"/><feGaussianBlur in="FeOffset1146Out" result="FeGaussianBlur1147Out" stdDeviation="14.719999999999999 14.719999999999999"/></filter><linearGradient id="hetdc" x1="66" x2="67" y1="35" y2="85" gradientUnits="userSpaceOnUse"><stop offset="0" stop-color="#ff0054"/><stop offset="1" stop-color="#ff0042"/></linearGradient><filter id="hetdd" width="200%" height="200%" x="-50%" y="-50%"><feGaussianBlur in="SourceGraphic" result="FeGaussianBlur1168Out" stdDeviation="0 0"/></filter><mask id="hetde"><path fill="#fff" d="M90 59.999a40.584 40.584 0 0 1-.342 4.93c-1.486 10.574-7.561 18.499-15.007 19.855-.478.087-.915.147-1.328.179-.021.002-.043.002-.064.002-.299.022-.594.034-.883.034h-11.75c-3.49 0-6.744-1.452-9.484-3.944l.626-.31a.796.796 0 0 0 .09-.054l2.053-1.357 2.052 1.357a.84.84 0 0 0 .931 0l2.053-1.357 2.052 1.357a.84.84 0 0 0 .93 0l2.025-1.34a21.258 21.258 0 0 1-.976-1.356l-1.513 1.001-2.053-1.357a.839.839 0 0 0-.93 0l-2.053 1.357-2.053-1.357a.839.839 0 0 0-.93 0l-2.475 1.637-1.077.535c-1.267-1.384-2.401-3.004-3.363-4.817l1.259-1.073 1.085-1.077 1.925 1.911a.845.845 0 0 0 1.187 0l1.924-1.911 1.925 1.911a.843.843 0 0 0 1.292-.128l1.267-1.887 2.422 1.202a30.548 30.548 0 0 1-.879-2.3l-1.455-.722a.842.842 0 0 0-1.074.283l-1.11 1.654-1.795-1.781a.843.843 0 0 0-1.186 0l-1.925 1.91-1.924-1.91a.843.843 0 0 0-1.187 0L46.65 72.7l-.873.742a29.286 29.286 0 0 1-1.181-3.068l2.73-4.068 1.795 1.782a.844.844 0 0 0 1.187 0l1.924-1.911 1.925 1.91a.844.844 0 0 0 1.187 0l1.924-1.91 1.085 1.077a.829.829 0 0 0 .483.223 36.414 36.414 0 0 1-.412-2.51l-.562-.557a.843.843 0 0 0-1.187 0l-1.925 1.91-1.924-1.91a.843.843 0 0 0-1.187 0l-1.925 1.91-1.924-1.91a.847.847 0 0 0-.677-.241.845.845 0 0 0-.615.367l-2.503 3.729A34.385 34.385 0 0 1 43 59.999c0-.12.005-.24.006-.361l.457.272 3.357 1.666a.841.841 0 0 0 .97-.155l1.924-1.91 1.925 1.91a.842.842 0 0 0 1.187 0l2.054-2.04 3.25 1.936a40.253 40.253 0 0 1-.022-1.318c0-.212.005-.423.009-.633l-2.935-1.75a.845.845 0 0 0-1.025.127l-1.925 1.91-1.924-1.91a.843.843 0 0 0-1.187 0l-2.09 2.075-2.76-1.368-1.195-.712c.017-.279.04-.554.063-.829l2.198-2.161 1.866-1.898 1.918 1.905a.845.845 0 0 0 1.187 0l1.924-1.912 1.925 1.912a.845.845 0 0 0 1.187 0l1.924-1.912 1.085 1.078c.062.061.137.099.21.138.102-.655.223-1.298.357-1.932l-1.058-1.051a.842.842 0 0 0-1.187 0l-1.925 1.91-1.924-1.91a.842.842 0 0 0-1.187 0l-1.925 1.91-1.924-1.91a.898.898 0 0 0-.599-.244.839.839 0 0 0-.595.25l-2.45 2.49-.668.656c.502-2.996 1.38-5.787 2.567-8.26l.686.557 2.518 1.666a.843.843 0 0 0 .93 0l2.053-1.357 2.053 1.357a.843.843 0 0 0 .93 0l2.113-1.397 2.695 1.337c.185-.535.38-1.06.588-1.572l-2.967-1.472a.843.843 0 0 0-.841.052l-2.052 1.357-2.053-1.357a.84.84 0 0 0-.931 0l-2.053 1.358-1.986-1.31-.895-.728c.277-.494.566-.973.868-1.435l2.244-.558 5.502-1.56 2.195 1.452a.84.84 0 0 0 .93 0l2.113-1.398 2.257 1.12c.315-.48.644-.936.984-1.375L61 39.253a.847.847 0 0 0-.841.052l-2.052 1.358-2.053-1.358a.85.85 0 0 0-.696-.108l-5.848 1.66-.259.064c3.072-3.69 7.041-5.922 11.374-5.922h11.75c.322 0 .643.012.961.037 9.287.705 16.605 11.602 16.662 24.81v.153zm-1.678-.007v-.156c-.054-12.291-6.651-22.437-15.036-23.13-.09.008-.176.02-.265.032-.141.017-.283.033-.423.056-.092.016-.183.038-.275.057-.14.029-.282.055-.421.089-.088.023-.176.051-.264.076-.14.04-.282.078-.421.124-.085.029-.169.063-.253.094-.14.05-.281.1-.42.158-.082.034-.163.074-.245.11-.138.063-.277.123-.414.192-.08.04-.16.086-.241.13-.135.072-.271.143-.405.22-.078.047-.155.1-.233.147-.133.082-.268.163-.399.252-.073.05-.147.106-.22.158-.132.094-.266.187-.396.288-.074.057-.145.119-.218.177-.127.102-.256.205-.382.313-.072.063-.143.13-.215.195-.123.112-.247.222-.368.34-.07.065-.137.138-.205.206-.122.122-.243.243-.362.37-.066.07-.13.146-.195.218-.119.132-.237.262-.353.398-.064.077-.127.16-.191.239-.113.138-.227.275-.337.419-.063.083-.125.17-.188.255-.107.145-.215.29-.32.44-.063.09-.124.185-.186.277-.101.15-.204.3-.303.455-.06.094-.118.195-.178.293-.097.158-.194.314-.288.476-.058.097-.111.2-.167.298-.094.167-.188.333-.278.503-.055.103-.105.21-.159.314-.088.174-.178.345-.263.523-.05.104-.098.213-.148.32-.084.181-.169.361-.25.547-.048.108-.091.219-.137.329-.08.187-.16.375-.236.567-.049.124-.093.25-.141.374-.069.183-.14.364-.207.55-.05.139-.095.283-.142.423-.06.177-.122.352-.18.532-.045.142-.086.287-.13.43-.055.183-.112.364-.165.55-.04.145-.078.294-.117.44-.05.188-.103.375-.15.565-.038.154-.072.312-.109.468-.043.187-.089.372-.129.56-.036.168-.068.338-.101.508-.037.181-.075.36-.109.543-.032.176-.06.355-.089.532-.03.18-.063.358-.09.539-.026.177-.048.356-.073.533-.025.187-.053.372-.076.558-.02.179-.038.359-.056.538-.02.191-.043.38-.06.572-.02.213-.033.43-.05.646-.011.16-.025.318-.035.478-.015.259-.025.52-.035.78l-.017.363a37.623 37.623 0 0 0 .035 3.096c.027.52.06 1.034.107 1.543l.009.085a37.067 37.067 0 0 0 .207 1.743c.073.511.154 1.02.247 1.518l.011.056c.094.498.2.99.312 1.473l.032.136c.121.506.251 1.002.392 1.49l.005.012c.145.5.3.99.466 1.47l.004.01c.166.48.343.953.53 1.413l.118.285a24.106 24.106 0 0 0 2.064 3.919c.018.025.035.052.052.078.175.264.354.52.537.768l.061.084c.6.808 1.241 1.537 1.919 2.18l.125.115a14.05 14.05 0 0 0 .72.622c.172.137.346.27.523.398.06.043.121.09.183.13.205.145.413.28.624.408.03.017.057.038.087.056.241.143.487.276.735.399.054.026.11.049.165.076.19.09.38.173.573.25.085.035.172.066.257.096a8.933 8.933 0 0 0 1.31.38c.085.017.168.037.253.053.242.045.485.078.73.102l.052.007c.252-.022.51-.065.767-.105 6.884-1.036 12.572-8.473 13.98-18.484a39.02 39.02 0 0 0 .327-4.713zm-19.304.006c0 4.42-1.136 8.504-2.857 10.19l-.37.4c-1.14-2.973-1.809-6.611-1.809-10.59 0-4 .677-7.655 1.828-10.638l.303.393c.025.031.05.06.078.087 1.69 1.656 2.827 5.739 2.827 10.158zm15.108 0c0 10.281-4.424 18.334-10.072 18.334-3.03 0-5.7-2.333-7.532-6.07l.847-.918c2.022-1.98 3.328-6.433 3.328-11.346 0-4.878-1.287-9.302-3.285-11.302l-.83-1.079c1.829-3.668 4.473-5.952 7.472-5.952 5.648 0 10.072 8.053 10.072 18.333z"/></mask></defs><g><g><g filter="url(#hetda)"><path fill="none" stroke="#cb0035" stroke-opacity=".36" stroke-width="24.6" d="M90 59.999a40.584 40.584 0 0 1-.342 4.93c-1.486 10.574-7.561 18.499-15.007 19.855-.478.087-.915.147-1.328.179-.021.002-.043.002-.064.002h0c-.299.022-.594.034-.883.034h-11.75c-3.49 0-6.744-1.452-9.484-3.944l.626-.31a.796.796 0 0 0 .09-.054l2.053-1.357 2.052 1.357a.84.84 0 0 0 .931 0l2.053-1.357 2.052 1.357a.84.84 0 0 0 .93 0l2.025-1.34a21.258 21.258 0 0 1-.976-1.356l-1.513 1.001-2.053-1.357a.839.839 0 0 0-.93 0l-2.053 1.357-2.053-1.357a.839.839 0 0 0-.93 0l-2.475 1.637-1.077.535c-1.267-1.384-2.401-3.004-3.363-4.817l1.259-1.073 1.085-1.077 1.925 1.911a.845.845 0 0 0 1.187 0l1.924-1.911 1.925 1.911a.843.843 0 0 0 1.292-.128l1.267-1.887 2.422 1.202a30.548 30.548 0 0 1-.879-2.3l-1.455-.722a.842.842 0 0 0-1.074.283l-1.11 1.654-1.795-1.781a.843.843 0 0 0-1.186 0l-1.925 1.91-1.924-1.91a.843.843 0 0 0-1.187 0L46.65 72.7l-.873.742a29.286 29.286 0 0 1-1.181-3.068l2.73-4.068 1.795 1.782a.844.844 0 0 0 1.187 0l1.924-1.911 1.925 1.91a.844.844 0 0 0 1.187 0l1.924-1.91 1.085 1.077a.829.829 0 0 0 .483.223 36.414 36.414 0 0 1-.412-2.51l-.562-.557a.843.843 0 0 0-1.187 0l-1.925 1.91-1.924-1.91a.843.843 0 0 0-1.187 0l-1.925 1.91-1.924-1.91a.847.847 0 0 0-.677-.241.845.845 0 0 0-.615.367l-2.503 3.729A34.385 34.385 0 0 1 43 59.999c0-.12.005-.24.006-.361l.457.272 3.357 1.666a.841.841 0 0 0 .97-.155l1.924-1.91 1.925 1.91a.842.842 0 0 0 1.187 0l2.054-2.04 3.25 1.936a40.253 40.253 0 0 1-.022-1.318c0-.212.005-.423.009-.633l-2.935-1.75a.845.845 0 0 0-1.025.127l-1.925 1.91-1.924-1.91a.843.843 0 0 0-1.187 0l-2.09 2.075-2.76-1.368-1.195-.712c.017-.279.04-.554.063-.829l2.198-2.161 1.866-1.898 1.918 1.905a.845.845 0 0 0 1.187 0l1.924-1.912 1.925 1.912a.845.845 0 0 0 1.187 0l1.924-1.912 1.085 1.078c.062.061.137.099.21.138.102-.655.223-1.298.357-1.932l-1.058-1.051a.842.842 0 0 0-1.187 0l-1.925 1.91-1.924-1.91a.842.842 0 0 0-1.187 0l-1.925 1.91-1.924-1.91a.898.898 0 0 0-.599-.244.839.839 0 0 0-.595.25l-2.45 2.49-.668.656c.502-2.996 1.38-5.787 2.567-8.26l.686.557 2.518 1.666a.843.843 0 0 0 .93 0l2.053-1.357 2.053 1.357a.843.843 0 0 0 .93 0l2.113-1.397 2.695 1.337c.185-.535.38-1.06.588-1.572l-2.967-1.472a.843.843 0 0 0-.841.052l-2.052 1.357-2.053-1.357a.84.84 0 0 0-.931 0l-2.053 1.358-1.986-1.31-.895-.728c.277-.494.566-.973.868-1.435l2.244-.558 5.502-1.56 2.195 1.452a.84.84 0 0 0 .93 0l2.113-1.398 2.257 1.12c.315-.48.644-.936.984-1.375L61 39.253a.847.847 0 0 0-.841.052l-2.052 1.358-2.053-1.358a.85.85 0 0 0-.696-.108l-5.848 1.66-.259.064c3.072-3.69 7.041-5.922 11.374-5.922h11.75c.322 0 .643.012.961.037h0c9.287.705 16.605 11.602 16.662 24.81v.153zm-1.678-.007v-.156c-.054-12.291-6.651-22.437-15.036-23.13-.09.008-.176.02-.265.032-.141.017-.283.033-.423.056-.092.016-.183.038-.275.057-.14.029-.282.055-.421.089-.088.023-.176.051-.264.076-.14.04-.282.078-.421.124-.085.029-.169.063-.253.094-.14.05-.281.1-.42.158-.082.034-.163.074-.245.11-.138.063-.277.123-.414.192-.08.04-.16.086-.241.13-.135.072-.271.143-.405.22-.078.047-.155.1-.233.147-.133.082-.268.163-.399.252-.073.05-.147.106-.22.158-.132.094-.266.187-.396.288-.074.057-.145.119-.218.177-.127.102-.256.205-.382.313-.072.063-.143.13-.215.195-.123.112-.247.222-.368.34-.07.065-.137.138-.205.206-.122.122-.243.243-.362.37-.066.07-.13.146-.195.218-.119.132-.237.262-.353.398-.064.077-.127.16-.191.239-.113.138-.227.275-.337.419-.063.083-.125.17-.188.255-.107.145-.215.29-.32.44-.063.09-.124.185-.186.277-.101.15-.204.3-.303.455-.06.094-.118.195-.178.293-.097.158-.194.314-.288.476-.058.097-.111.2-.167.298-.094.167-.188.333-.278.503-.055.103-.105.21-.159.314-.088.174-.178.345-.263.523-.05.104-.098.213-.148.32-.084.181-.169.361-.25.547-.048.108-.091.219-.137.329-.08.187-.16.375-.236.567-.049.124-.093.25-.141.374-.069.183-.14.364-.207.55-.05.139-.095.283-.142.423-.06.177-.122.352-.18.532-.045.142-.086.287-.13.43-.055.183-.112.364-.165.55-.04.145-.078.294-.117.44-.05.188-.103.375-.15.565-.038.154-.072.312-.109.468-.043.187-.089.372-.129.56-.036.168-.068.338-.101.508-.037.181-.075.36-.109.543-.032.176-.06.355-.089.532-.03.18-.063.358-.09.539-.026.177-.048.356-.073.533-.025.187-.053.372-.076.558-.02.179-.038.359-.056.538-.02.191-.043.38-.06.572-.02.213-.033.43-.05.646-.011.16-.025.318-.035.478-.015.259-.025.52-.035.78l-.017.363a37.623 37.623 0 0 0 .035 3.096c.027.52.06 1.034.107 1.543l.009.085a37.067 37.067 0 0 0 .207 1.743c.073.511.154 1.02.247 1.518l.011.056c.094.498.2.99.312 1.473l.032.136c.121.506.251 1.002.392 1.49l.005.012c.145.5.3.99.466 1.47l.004.01c.166.48.343.953.53 1.413l.118.285a24.106 24.106 0 0 0 2.064 3.919c.018.025.035.052.052.078.175.264.354.52.537.768l.061.084c.6.808 1.241 1.537 1.919 2.18l.125.115a14.05 14.05 0 0 0 .72.622c.172.137.346.27.523.398.06.043.121.09.183.13.205.145.413.28.624.408.03.017.057.038.087.056.241.143.487.276.735.399.054.026.11.049.165.076.19.09.38.173.573.25.085.035.172.066.257.096a8.933 8.933 0 0 0 1.31.38c.085.017.168.037.253.053.242.045.485.078.73.102l.052.007c.252-.022.51-.065.767-.105 6.884-1.036 12.572-8.473 13.98-18.484a39.02 39.02 0 0 0 .327-4.713zm-19.304.006c0 4.42-1.136 8.504-2.857 10.19l-.37.4c-1.14-2.973-1.809-6.611-1.809-10.59 0-4 .677-7.655 1.828-10.638l.303.393c.025.031.05.06.078.087 1.69 1.656 2.827 5.739 2.827 10.158zm15.108 0c0 10.281-4.424 18.334-10.072 18.334-3.03 0-5.7-2.333-7.532-6.07l.847-.918c2.022-1.98 3.328-6.433 3.328-11.346 0-4.878-1.287-9.302-3.285-11.302l-.83-1.079c1.829-3.668 4.473-5.952 7.472-5.952 5.648 0 10.072 8.053 10.072 18.333z" mask="url(&quot;#hetdb&quot;)"/><path fill="#cb0035" fill-opacity=".36" d="M90 59.999a40.584 40.584 0 0 1-.342 4.93c-1.486 10.574-7.561 18.499-15.007 19.855-.478.087-.915.147-1.328.179-.021.002-.043.002-.064.002-.299.022-.594.034-.883.034h-11.75c-3.49 0-6.744-1.452-9.484-3.944l.626-.31a.796.796 0 0 0 .09-.054l2.053-1.357 2.052 1.357a.84.84 0 0 0 .931 0l2.053-1.357 2.052 1.357a.84.84 0 0 0 .93 0l2.025-1.34a21.258 21.258 0 0 1-.976-1.356l-1.513 1.001-2.053-1.357a.839.839 0 0 0-.93 0l-2.053 1.357-2.053-1.357a.839.839 0 0 0-.93 0l-2.475 1.637-1.077.535c-1.267-1.384-2.401-3.004-3.363-4.817l1.259-1.073 1.085-1.077 1.925 1.911a.845.845 0 0 0 1.187 0l1.924-1.911 1.925 1.911a.843.843 0 0 0 1.292-.128l1.267-1.887 2.422 1.202a30.548 30.548 0 0 1-.879-2.3l-1.455-.722a.842.842 0 0 0-1.074.283l-1.11 1.654-1.795-1.781a.843.843 0 0 0-1.186 0l-1.925 1.91-1.924-1.91a.843.843 0 0 0-1.187 0L46.65 72.7l-.873.742a29.286 29.286 0 0 1-1.181-3.068l2.73-4.068 1.795 1.782a.844.844 0 0 0 1.187 0l1.924-1.911 1.925 1.91a.844.844 0 0 0 1.187 0l1.924-1.91 1.085 1.077a.829.829 0 0 0 .483.223 36.414 36.414 0 0 1-.412-2.51l-.562-.557a.843.843 0 0 0-1.187 0l-1.925 1.91-1.924-1.91a.843.843 0 0 0-1.187 0l-1.925 1.91-1.924-1.91a.847.847 0 0 0-.677-.241.845.845 0 0 0-.615.367l-2.503 3.729A34.385 34.385 0 0 1 43 59.999c0-.12.005-.24.006-.361l.457.272 3.357 1.666a.841.841 0 0 0 .97-.155l1.924-1.91 1.925 1.91a.842.842 0 0 0 1.187 0l2.054-2.04 3.25 1.936a40.253 40.253 0 0 1-.022-1.318c0-.212.005-.423.009-.633l-2.935-1.75a.845.845 0 0 0-1.025.127l-1.925 1.91-1.924-1.91a.843.843 0 0 0-1.187 0l-2.09 2.075-2.76-1.368-1.195-.712c.017-.279.04-.554.063-.829l2.198-2.161 1.866-1.898 1.918 1.905a.845.845 0 0 0 1.187 0l1.924-1.912 1.925 1.912a.845.845 0 0 0 1.187 0l1.924-1.912 1.085 1.078c.062.061.137.099.21.138.102-.655.223-1.298.357-1.932l-1.058-1.051a.842.842 0 0 0-1.187 0l-1.925 1.91-1.924-1.91a.842.842 0 0 0-1.187 0l-1.925 1.91-1.924-1.91a.898.898 0 0 0-.599-.244.839.839 0 0 0-.595.25l-2.45 2.49-.668.656c.502-2.996 1.38-5.787 2.567-8.26l.686.557 2.518 1.666a.843.843 0 0 0 .93 0l2.053-1.357 2.053 1.357a.843.843 0 0 0 .93 0l2.113-1.397 2.695 1.337c.185-.535.38-1.06.588-1.572l-2.967-1.472a.843.843 0 0 0-.841.052l-2.052 1.357-2.053-1.357a.84.84 0 0 0-.931 0l-2.053 1.358-1.986-1.31-.895-.728c.277-.494.566-.973.868-1.435l2.244-.558 5.502-1.56 2.195 1.452a.84.84 0 0 0 .93 0l2.113-1.398 2.257 1.12c.315-.48.644-.936.984-1.375L61 39.253a.847.847 0 0 0-.841.052l-2.052 1.358-2.053-1.358a.85.85 0 0 0-.696-.108l-5.848 1.66-.259.064c3.072-3.69 7.041-5.922 11.374-5.922h11.75c.322 0 .643.012.961.037 9.287.705 16.605 11.602 16.662 24.81v.153zm-1.678-.007v-.156c-.054-12.291-6.651-22.437-15.036-23.13-.09.008-.176.02-.265.032-.141.017-.283.033-.423.056-.092.016-.183.038-.275.057-.14.029-.282.055-.421.089-.088.023-.176.051-.264.076-.14.04-.282.078-.421.124-.085.029-.169.063-.253.094-.14.05-.281.1-.42.158-.082.034-.163.074-.245.11-.138.063-.277.123-.414.192-.08.04-.16.086-.241.13-.135.072-.271.143-.405.22-.078.047-.155.1-.233.147-.133.082-.268.163-.399.252-.073.05-.147.106-.22.158-.132.094-.266.187-.396.288-.074.057-.145.119-.218.177-.127.102-.256.205-.382.313-.072.063-.143.13-.215.195-.123.112-.247.222-.368.34-.07.065-.137.138-.205.206-.122.122-.243.243-.362.37-.066.07-.13.146-.195.218-.119.132-.237.262-.353.398-.064.077-.127.16-.191.239-.113.138-.227.275-.337.419-.063.083-.125.17-.188.255-.107.145-.215.29-.32.44-.063.09-.124.185-.186.277-.101.15-.204.3-.303.455-.06.094-.118.195-.178.293-.097.158-.194.314-.288.476-.058.097-.111.2-.167.298-.094.167-.188.333-.278.503-.055.103-.105.21-.159.314-.088.174-.178.345-.263.523-.05.104-.098.213-.148.32-.084.181-.169.361-.25.547-.048.108-.091.219-.137.329-.08.187-.16.375-.236.567-.049.124-.093.25-.141.374-.069.183-.14.364-.207.55-.05.139-.095.283-.142.423-.06.177-.122.352-.18.532-.045.142-.086.287-.13.43-.055.183-.112.364-.165.55-.04.145-.078.294-.117.44-.05.188-.103.375-.15.565-.038.154-.072.312-.109.468-.043.187-.089.372-.129.56-.036.168-.068.338-.101.508-.037.181-.075.36-.109.543-.032.176-.06.355-.089.532-.03.18-.063.358-.09.539-.026.177-.048.356-.073.533-.025.187-.053.372-.076.558-.02.179-.038.359-.056.538-.02.191-.043.38-.06.572-.02.213-.033.43-.05.646-.011.16-.025.318-.035.478-.015.259-.025.52-.035.78l-.017.363a37.623 37.623 0 0 0 .035 3.096c.027.52.06 1.034.107 1.543l.009.085a37.067 37.067 0 0 0 .207 1.743c.073.511.154 1.02.247 1.518l.011.056c.094.498.2.99.312 1.473l.032.136c.121.506.251 1.002.392 1.49l.005.012c.145.5.3.99.466 1.47l.004.01c.166.48.343.953.53 1.413l.118.285a24.106 24.106 0 0 0 2.064 3.919c.018.025.035.052.052.078.175.264.354.52.537.768l.061.084c.6.808 1.241 1.537 1.919 2.18l.125.115a14.05 14.05 0 0 0 .72.622c.172.137.346.27.523.398.06.043.121.09.183.13.205.145.413.28.624.408.03.017.057.038.087.056.241.143.487.276.735.399.054.026.11.049.165.076.19.09.38.173.573.25.085.035.172.066.257.096a8.933 8.933 0 0 0 1.31.38c.085.017.168.037.253.053.242.045.485.078.73.102l.052.007c.252-.022.51-.065.767-.105 6.884-1.036 12.572-8.473 13.98-18.484a39.02 39.02 0 0 0 .327-4.713zm-19.304.006c0 4.42-1.136 8.504-2.857 10.19l-.37.4c-1.14-2.973-1.809-6.611-1.809-10.59 0-4 .677-7.655 1.828-10.638l.303.393c.025.031.05.06.078.087 1.69 1.656 2.827 5.739 2.827 10.158zm15.108 0c0 10.281-4.424 18.334-10.072 18.334-3.03 0-5.7-2.333-7.532-6.07l.847-.918c2.022-1.98 3.328-6.433 3.328-11.346 0-4.878-1.287-9.302-3.285-11.302l-.83-1.079c1.829-3.668 4.473-5.952 7.472-5.952 5.648 0 10.072 8.053 10.072 18.333z"/></g><path d="M90 59.999a40.584 40.584 0 0 1-.342 4.93c-1.486 10.574-7.561 18.499-15.007 19.855-.478.087-.915.147-1.328.179-.021.002-.043.002-.064.002-.299.022-.594.034-.883.034h-11.75c-3.49 0-6.744-1.452-9.484-3.944l.626-.31a.796.796 0 0 0 .09-.054l2.053-1.357 2.052 1.357a.84.84 0 0 0 .931 0l2.053-1.357 2.052 1.357a.84.84 0 0 0 .93 0l2.025-1.34a21.258 21.258 0 0 1-.976-1.356l-1.513 1.001-2.053-1.357a.839.839 0 0 0-.93 0l-2.053 1.357-2.053-1.357a.839.839 0 0 0-.93 0l-2.475 1.637-1.077.535c-1.267-1.384-2.401-3.004-3.363-4.817l1.259-1.073 1.085-1.077 1.925 1.911a.845.845 0 0 0 1.187 0l1.924-1.911 1.925 1.911a.843.843 0 0 0 1.292-.128l1.267-1.887 2.422 1.202a30.548 30.548 0 0 1-.879-2.3l-1.455-.722a.842.842 0 0 0-1.074.283l-1.11 1.654-1.795-1.781a.843.843 0 0 0-1.186 0l-1.925 1.91-1.924-1.91a.843.843 0 0 0-1.187 0L46.65 72.7l-.873.742a29.286 29.286 0 0 1-1.181-3.068l2.73-4.068 1.795 1.782a.844.844 0 0 0 1.187 0l1.924-1.911 1.925 1.91a.844.844 0 0 0 1.187 0l1.924-1.91 1.085 1.077a.829.829 0 0 0 .483.223 36.414 36.414 0 0 1-.412-2.51l-.562-.557a.843.843 0 0 0-1.187 0l-1.925 1.91-1.924-1.91a.843.843 0 0 0-1.187 0l-1.925 1.91-1.924-1.91a.847.847 0 0 0-.677-.241.845.845 0 0 0-.615.367l-2.503 3.729A34.385 34.385 0 0 1 43 59.999c0-.12.005-.24.006-.361l.457.272 3.357 1.666a.841.841 0 0 0 .97-.155l1.924-1.91 1.925 1.91a.842.842 0 0 0 1.187 0l2.054-2.04 3.25 1.936a40.253 40.253 0 0 1-.022-1.318c0-.212.005-.423.009-.633l-2.935-1.75a.845.845 0 0 0-1.025.127l-1.925 1.91-1.924-1.91a.843.843 0 0 0-1.187 0l-2.09 2.075-2.76-1.368-1.195-.712c.017-.279.04-.554.063-.829l2.198-2.161 1.866-1.898 1.918 1.905a.845.845 0 0 0 1.187 0l1.924-1.912 1.925 1.912a.845.845 0 0 0 1.187 0l1.924-1.912 1.085 1.078c.062.061.137.099.21.138.102-.655.223-1.298.357-1.932l-1.058-1.051a.842.842 0 0 0-1.187 0l-1.925 1.91-1.924-1.91a.842.842 0 0 0-1.187 0l-1.925 1.91-1.924-1.91a.898.898 0 0 0-.599-.244.839.839 0 0 0-.595.25l-2.45 2.49-.668.656c.502-2.996 1.38-5.787 2.567-8.26l.686.557 2.518 1.666a.843.843 0 0 0 .93 0l2.053-1.357 2.053 1.357a.843.843 0 0 0 .93 0l2.113-1.397 2.695 1.337c.185-.535.38-1.06.588-1.572l-2.967-1.472a.843.843 0 0 0-.841.052l-2.052 1.357-2.053-1.357a.84.84 0 0 0-.931 0l-2.053 1.358-1.986-1.31-.895-.728c.277-.494.566-.973.868-1.435l2.244-.558 5.502-1.56 2.195 1.452a.84.84 0 0 0 .93 0l2.113-1.398 2.257 1.12c.315-.48.644-.936.984-1.375L61 39.253a.847.847 0 0 0-.841.052l-2.052 1.358-2.053-1.358a.85.85 0 0 0-.696-.108l-5.848 1.66-.259.064c3.072-3.69 7.041-5.922 11.374-5.922h11.75c.322 0 .643.012.961.037 9.287.705 16.605 11.602 16.662 24.81v.153zm-1.678-.007v-.156c-.054-12.291-6.651-22.437-15.036-23.13-.09.008-.176.02-.265.032-.141.017-.283.033-.423.056-.092.016-.183.038-.275.057-.14.029-.282.055-.421.089-.088.023-.176.051-.264.076-.14.04-.282.078-.421.124-.085.029-.169.063-.253.094-.14.05-.281.1-.42.158-.082.034-.163.074-.245.11-.138.063-.277.123-.414.192-.08.04-.16.086-.241.13-.135.072-.271.143-.405.22-.078.047-.155.1-.233.147-.133.082-.268.163-.399.252-.073.05-.147.106-.22.158-.132.094-.266.187-.396.288-.074.057-.145.119-.218.177-.127.102-.256.205-.382.313-.072.063-.143.13-.215.195-.123.112-.247.222-.368.34-.07.065-.137.138-.205.206-.122.122-.243.243-.362.37-.066.07-.13.146-.195.218-.119.132-.237.262-.353.398-.064.077-.127.16-.191.239-.113.138-.227.275-.337.419-.063.083-.125.17-.188.255-.107.145-.215.29-.32.44-.063.09-.124.185-.186.277-.101.15-.204.3-.303.455-.06.094-.118.195-.178.293-.097.158-.194.314-.288.476-.058.097-.111.2-.167.298-.094.167-.188.333-.278.503-.055.103-.105.21-.159.314-.088.174-.178.345-.263.523-.05.104-.098.213-.148.32-.084.181-.169.361-.25.547-.048.108-.091.219-.137.329-.08.187-.16.375-.236.567-.049.124-.093.25-.141.374-.069.183-.14.364-.207.55-.05.139-.095.283-.142.423-.06.177-.122.352-.18.532-.045.142-.086.287-.13.43-.055.183-.112.364-.165.55-.04.145-.078.294-.117.44-.05.188-.103.375-.15.565-.038.154-.072.312-.109.468-.043.187-.089.372-.129.56-.036.168-.068.338-.101.508-.037.181-.075.36-.109.543-.032.176-.06.355-.089.532-.03.18-.063.358-.09.539-.026.177-.048.356-.073.533-.025.187-.053.372-.076.558-.02.179-.038.359-.056.538-.02.191-.043.38-.06.572-.02.213-.033.43-.05.646-.011.16-.025.318-.035.478-.015.259-.025.52-.035.78l-.017.363a37.623 37.623 0 0 0 .035 3.096c.027.52.06 1.034.107 1.543l.009.085a37.067 37.067 0 0 0 .207 1.743c.073.511.154 1.02.247 1.518l.011.056c.094.498.2.99.312 1.473l.032.136c.121.506.251 1.002.392 1.49l.005.012c.145.5.3.99.466 1.47l.004.01c.166.48.343.953.53 1.413l.118.285a24.106 24.106 0 0 0 2.064 3.919c.018.025.035.052.052.078.175.264.354.52.537.768l.061.084c.6.808 1.241 1.537 1.919 2.18l.125.115a14.05 14.05 0 0 0 .72.622c.172.137.346.27.523.398.06.043.121.09.183.13.205.145.413.28.624.408.03.017.057.038.087.056.241.143.487.276.735.399.054.026.11.049.165.076.19.09.38.173.573.25.085.035.172.066.257.096a8.933 8.933 0 0 0 1.31.38c.085.017.168.037.253.053.242.045.485.078.73.102l.052.007c.252-.022.51-.065.767-.105 6.884-1.036 12.572-8.473 13.98-18.484a39.02 39.02 0 0 0 .327-4.713zm-19.304.006c0 4.42-1.136 8.504-2.857 10.19l-.37.4c-1.14-2.973-1.809-6.611-1.809-10.59 0-4 .677-7.655 1.828-10.638l.303.393c.025.031.05.06.078.087 1.69 1.656 2.827 5.739 2.827 10.158zm15.108 0c0 10.281-4.424 18.334-10.072 18.334-3.03 0-5.7-2.333-7.532-6.07l.847-.918c2.022-1.98 3.328-6.433 3.328-11.346 0-4.878-1.287-9.302-3.285-11.302l-.83-1.079c1.829-3.668 4.473-5.952 7.472-5.952 5.648 0 10.072 8.053 10.072 18.333z"/><path fill="url(#hetdc)" d="M90 59.999a40.584 40.584 0 0 1-.342 4.93c-1.486 10.574-7.561 18.499-15.007 19.855-.478.087-.915.147-1.328.179-.021.002-.043.002-.064.002-.299.022-.594.034-.883.034h-11.75c-3.49 0-6.744-1.452-9.484-3.944l.626-.31a.796.796 0 0 0 .09-.054l2.053-1.357 2.052 1.357a.84.84 0 0 0 .931 0l2.053-1.357 2.052 1.357a.84.84 0 0 0 .93 0l2.025-1.34a21.258 21.258 0 0 1-.976-1.356l-1.513 1.001-2.053-1.357a.839.839 0 0 0-.93 0l-2.053 1.357-2.053-1.357a.839.839 0 0 0-.93 0l-2.475 1.637-1.077.535c-1.267-1.384-2.401-3.004-3.363-4.817l1.259-1.073 1.085-1.077 1.925 1.911a.845.845 0 0 0 1.187 0l1.924-1.911 1.925 1.911a.843.843 0 0 0 1.292-.128l1.267-1.887 2.422 1.202a30.548 30.548 0 0 1-.879-2.3l-1.455-.722a.842.842 0 0 0-1.074.283l-1.11 1.654-1.795-1.781a.843.843 0 0 0-1.186 0l-1.925 1.91-1.924-1.91a.843.843 0 0 0-1.187 0L46.65 72.7l-.873.742a29.286 29.286 0 0 1-1.181-3.068l2.73-4.068 1.795 1.782a.844.844 0 0 0 1.187 0l1.924-1.911 1.925 1.91a.844.844 0 0 0 1.187 0l1.924-1.91 1.085 1.077a.829.829 0 0 0 .483.223 36.414 36.414 0 0 1-.412-2.51l-.562-.557a.843.843 0 0 0-1.187 0l-1.925 1.91-1.924-1.91a.843.843 0 0 0-1.187 0l-1.925 1.91-1.924-1.91a.847.847 0 0 0-.677-.241.845.845 0 0 0-.615.367l-2.503 3.729A34.385 34.385 0 0 1 43 59.999c0-.12.005-.24.006-.361l.457.272 3.357 1.666a.841.841 0 0 0 .97-.155l1.924-1.91 1.925 1.91a.842.842 0 0 0 1.187 0l2.054-2.04 3.25 1.936a40.253 40.253 0 0 1-.022-1.318c0-.212.005-.423.009-.633l-2.935-1.75a.845.845 0 0 0-1.025.127l-1.925 1.91-1.924-1.91a.843.843 0 0 0-1.187 0l-2.09 2.075-2.76-1.368-1.195-.712c.017-.279.04-.554.063-.829l2.198-2.161 1.866-1.898 1.918 1.905a.845.845 0 0 0 1.187 0l1.924-1.912 1.925 1.912a.845.845 0 0 0 1.187 0l1.924-1.912 1.085 1.078c.062.061.137.099.21.138.102-.655.223-1.298.357-1.932l-1.058-1.051a.842.842 0 0 0-1.187 0l-1.925 1.91-1.924-1.91a.842.842 0 0 0-1.187 0l-1.925 1.91-1.924-1.91a.898.898 0 0 0-.599-.244.839.839 0 0 0-.595.25l-2.45 2.49-.668.656c.502-2.996 1.38-5.787 2.567-8.26l.686.557 2.518 1.666a.843.843 0 0 0 .93 0l2.053-1.357 2.053 1.357a.843.843 0 0 0 .93 0l2.113-1.397 2.695 1.337c.185-.535.38-1.06.588-1.572l-2.967-1.472a.843.843 0 0 0-.841.052l-2.052 1.357-2.053-1.357a.84.84 0 0 0-.931 0l-2.053 1.358-1.986-1.31-.895-.728c.277-.494.566-.973.868-1.435l2.244-.558 5.502-1.56 2.195 1.452a.84.84 0 0 0 .93 0l2.113-1.398 2.257 1.12c.315-.48.644-.936.984-1.375L61 39.253a.847.847 0 0 0-.841.052l-2.052 1.358-2.053-1.358a.85.85 0 0 0-.696-.108l-5.848 1.66-.259.064c3.072-3.69 7.041-5.922 11.374-5.922h11.75c.322 0 .643.012.961.037 9.287.705 16.605 11.602 16.662 24.81v.153zm-1.678-.007v-.156c-.054-12.291-6.651-22.437-15.036-23.13-.09.008-.176.02-.265.032-.141.017-.283.033-.423.056-.092.016-.183.038-.275.057-.14.029-.282.055-.421.089-.088.023-.176.051-.264.076-.14.04-.282.078-.421.124-.085.029-.169.063-.253.094-.14.05-.281.1-.42.158-.082.034-.163.074-.245.11-.138.063-.277.123-.414.192-.08.04-.16.086-.241.13-.135.072-.271.143-.405.22-.078.047-.155.1-.233.147-.133.082-.268.163-.399.252-.073.05-.147.106-.22.158-.132.094-.266.187-.396.288-.074.057-.145.119-.218.177-.127.102-.256.205-.382.313-.072.063-.143.13-.215.195-.123.112-.247.222-.368.34-.07.065-.137.138-.205.206-.122.122-.243.243-.362.37-.066.07-.13.146-.195.218-.119.132-.237.262-.353.398-.064.077-.127.16-.191.239-.113.138-.227.275-.337.419-.063.083-.125.17-.188.255-.107.145-.215.29-.32.44-.063.09-.124.185-.186.277-.101.15-.204.3-.303.455-.06.094-.118.195-.178.293-.097.158-.194.314-.288.476-.058.097-.111.2-.167.298-.094.167-.188.333-.278.503-.055.103-.105.21-.159.314-.088.174-.178.345-.263.523-.05.104-.098.213-.148.32-.084.181-.169.361-.25.547-.048.108-.091.219-.137.329-.08.187-.16.375-.236.567-.049.124-.093.25-.141.374-.069.183-.14.364-.207.55-.05.139-.095.283-.142.423-.06.177-.122.352-.18.532-.045.142-.086.287-.13.43-.055.183-.112.364-.165.55-.04.145-.078.294-.117.44-.05.188-.103.375-.15.565-.038.154-.072.312-.109.468-.043.187-.089.372-.129.56-.036.168-.068.338-.101.508-.037.181-.075.36-.109.543-.032.176-.06.355-.089.532-.03.18-.063.358-.09.539-.026.177-.048.356-.073.533-.025.187-.053.372-.076.558-.02.179-.038.359-.056.538-.02.191-.043.38-.06.572-.02.213-.033.43-.05.646-.011.16-.025.318-.035.478-.015.259-.025.52-.035.78l-.017.363a37.623 37.623 0 0 0 .035 3.096c.027.52.06 1.034.107 1.543l.009.085a37.067 37.067 0 0 0 .207 1.743c.073.511.154 1.02.247 1.518l.011.056c.094.498.2.99.312 1.473l.032.136c.121.506.251 1.002.392 1.49l.005.012c.145.5.3.99.466 1.47l.004.01c.166.48.343.953.53 1.413l.118.285a24.106 24.106 0 0 0 2.064 3.919c.018.025.035.052.052.078.175.264.354.52.537.768l.061.084c.6.808 1.241 1.537 1.919 2.18l.125.115a14.05 14.05 0 0 0 .72.622c.172.137.346.27.523.398.06.043.121.09.183.13.205.145.413.28.624.408.03.017.057.038.087.056.241.143.487.276.735.399.054.026.11.049.165.076.19.09.38.173.573.25.085.035.172.066.257.096a8.933 8.933 0 0 0 1.31.38c.085.017.168.037.253.053.242.045.485.078.73.102l.052.007c.252-.022.51-.065.767-.105 6.884-1.036 12.572-8.473 13.98-18.484a39.02 39.02 0 0 0 .327-4.713zm-19.304.006c0 4.42-1.136 8.504-2.857 10.19l-.37.4c-1.14-2.973-1.809-6.611-1.809-10.59 0-4 .677-7.655 1.828-10.638l.303.393c.025.031.05.06.078.087 1.69 1.656 2.827 5.739 2.827 10.158zm15.108 0c0 10.281-4.424 18.334-10.072 18.334-3.03 0-5.7-2.333-7.532-6.07l.847-.918c2.022-1.98 3.328-6.433 3.328-11.346 0-4.878-1.287-9.302-3.285-11.302l-.83-1.079c1.829-3.668 4.473-5.952 7.472-5.952 5.648 0 10.072 8.053 10.072 18.333z"/><path fill="#f2abba" fill-opacity=".5" d="M43 87V62.052c.004 2.877.356 5.64.995 8.213l2.503-3.73a.845.845 0 0 1 .615-.366.847.847 0 0 1 .677.24l1.924 1.91 1.925-1.91a.843.843 0 0 1 1.187 0l1.924 1.91 1.925-1.91a.843.843 0 0 1 1.187 0l.562.558c.109.853.248 1.69.412 2.51a.829.829 0 0 1-.483-.223l-1.085-1.077-1.924 1.91a.844.844 0 0 1-1.187 0l-1.925-1.91-1.924 1.91a.844.844 0 0 1-1.187 0l-1.795-1.781-2.73 4.068c.344 1.065.739 2.09 1.181 3.068l.873-.742 1.632-1.624a.843.843 0 0 1 1.187 0l1.924 1.91 1.925-1.91a.843.843 0 0 1 1.186 0l1.794 1.781 1.111-1.654a.842.842 0 0 1 1.074-.283l1.455.722c.266.793.562 1.56.879 2.3l-2.422-1.202-1.268 1.887a.843.843 0 0 1-1.291.128l-1.925-1.911-1.924 1.911a.845.845 0 0 1-1.187 0l-1.925-1.911-1.085 1.077-1.259 1.073c.962 1.813 2.096 3.433 3.363 4.817l1.077-.535 2.474-1.637a.839.839 0 0 1 .931 0l2.053 1.357 2.052-1.357a.839.839 0 0 1 .93 0l2.054 1.357 1.513-1c.312.472.64.924.976 1.356l-2.024 1.34a.84.84 0 0 1-.931 0l-2.052-1.358-2.053 1.357a.84.84 0 0 1-.93 0l-2.053-1.357-2.053 1.357a.796.796 0 0 1-.09.053l-.626.311C53.882 85.547 57.136 87 60.626 87h11.75c.29 0 .584-.012.882-.034.022 0 .044 0 .065-.002.413-.032.85-.092 1.328-.179 7.446-1.356 13.521-9.281 15.007-19.856.213-1.613.328-3.27.342-4.93l-.001-.153c-.057-13.207-7.375-24.104-16.661-24.808l-.001-.001a12.48 12.48 0 0 0-.961-.037h-11.75c-4.333 0-8.302 2.232-11.374 5.922l.259-.064 5.848-1.66a.85.85 0 0 1 .696.108l2.053 1.358 2.052-1.358a.847.847 0 0 1 .84-.052l2.926 1.452c-.34.439-.67.896-.984 1.375l-2.257-1.12-2.112 1.398a.84.84 0 0 1-.931 0l-2.195-1.453-5.502 1.561-2.244.558c-.302.462-.59.941-.868 1.435l.895.728 1.986 1.31 2.053-1.358a.84.84 0 0 1 .93 0l2.054 1.357 2.052-1.357a.843.843 0 0 1 .84-.052l2.968 1.472a30.964 30.964 0 0 0-.588 1.572l-2.695-1.337-2.113 1.397a.843.843 0 0 1-.93 0l-2.053-1.357-2.052 1.357a.843.843 0 0 1-.931 0l-2.518-1.666-.686-.556c-1.187 2.472-2.065 5.263-2.567 8.26l.668-.657 2.45-2.49a.839.839 0 0 1 .595-.25c.215.007.44.087.599.244l1.924 1.91 1.925-1.91a.842.842 0 0 1 1.187 0l1.924 1.91 1.925-1.91a.842.842 0 0 1 1.187 0l1.058 1.051a36.669 36.669 0 0 0-.357 1.932c-.073-.04-.148-.077-.21-.138l-1.085-1.078-1.924 1.912a.845.845 0 0 1-1.187 0l-1.925-1.912-1.924 1.912a.845.845 0 0 1-1.187 0l-1.918-1.905-1.866 1.898-2.198 2.161c-.024.275-.046.55-.063.83l1.195.71 2.76 1.369 2.09-2.075a.843.843 0 0 1 1.187 0l1.924 1.91 1.925-1.91a.845.845 0 0 1 1.025-.126l2.935 1.749c-.004.21-.01.42-.01.633 0 .442.009.881.023 1.318l-3.25-1.937-2.054 2.04a.842.842 0 0 1-1.187 0l-1.925-1.909-1.924 1.91a.841.841 0 0 1-.97.155l-3.357-1.666-.457-.272c-.001.115-.006.228-.006.342V33h47v54zm0-25.001v.053-.072.019zm45.322-.007a39.02 39.02 0 0 1-.326 4.713c-1.409 10.01-7.097 17.448-13.98 18.484-.258.04-.516.083-.768.105l-.052-.007a9.05 9.05 0 0 1-.73-.102c-.085-.016-.168-.036-.253-.053a10.403 10.403 0 0 1-.528-.127 9.792 9.792 0 0 1-.782-.253 5.843 5.843 0 0 1-.257-.095 9.952 9.952 0 0 1-.573-.251c-.055-.027-.11-.05-.165-.076a11.282 11.282 0 0 1-.735-.4c-.03-.017-.058-.038-.087-.055-.21-.128-.419-.263-.624-.407-.062-.042-.123-.088-.183-.131a14.694 14.694 0 0 1-.704-.546 14.05 14.05 0 0 1-.539-.474c-.042-.04-.083-.076-.125-.115a16.785 16.785 0 0 1-1.919-2.18l-.061-.084a19.301 19.301 0 0 1-.537-.768c-.017-.026-.034-.053-.052-.078a24.106 24.106 0 0 1-2.064-3.92c-.04-.094-.08-.188-.118-.284-.187-.46-.364-.932-.53-1.413l-.004-.01c-.166-.48-.321-.97-.466-1.47l-.005-.012a32.838 32.838 0 0 1-.392-1.49c-.01-.045-.02-.091-.032-.136a34.132 34.132 0 0 1-.312-1.473l-.01-.056a35.937 35.937 0 0 1-.285-1.79 37.067 37.067 0 0 1-.17-1.47l-.009-.086a36.932 36.932 0 0 1-.122-1.906 37.623 37.623 0 0 1-.02-2.733l.017-.364c.01-.26.02-.52.035-.779.01-.16.024-.318.036-.478.016-.215.03-.433.048-.646.018-.192.04-.38.06-.572.02-.18.036-.36.057-.538.023-.186.05-.371.076-.558.025-.177.047-.356.073-.533.027-.181.06-.359.09-.539.03-.177.057-.356.09-.532.033-.184.071-.362.108-.543.033-.17.065-.34.101-.508.04-.188.086-.373.13-.56.036-.156.07-.314.108-.468.047-.19.1-.377.15-.564.04-.147.076-.296.117-.441.053-.186.11-.367.166-.55.043-.143.084-.288.13-.43.057-.18.119-.355.179-.532.047-.14.093-.284.142-.423.067-.186.138-.367.207-.55.048-.124.092-.25.14-.374.077-.192.158-.38.237-.567.046-.11.09-.221.137-.33.081-.185.166-.365.25-.546.05-.107.097-.216.148-.32.085-.178.175-.349.263-.523.054-.104.104-.211.159-.314.09-.17.184-.336.278-.503.056-.098.11-.2.167-.298.094-.162.19-.318.288-.476.06-.098.118-.199.178-.293.1-.154.202-.304.303-.455.062-.092.123-.186.186-.278.105-.15.213-.294.32-.439.063-.085.125-.172.188-.255.11-.144.224-.28.337-.42.064-.079.127-.16.191-.238.116-.136.234-.266.353-.398.065-.072.129-.148.195-.219.119-.126.24-.247.362-.369.068-.068.135-.14.205-.207.12-.117.245-.227.368-.339.072-.064.143-.132.215-.195.126-.108.255-.21.382-.313.073-.058.144-.12.218-.177.13-.1.264-.194.397-.288.072-.052.146-.108.22-.158.13-.089.265-.17.398-.252.078-.048.155-.1.233-.147.134-.077.27-.148.405-.22.08-.044.16-.09.24-.13.138-.069.277-.129.415-.191.082-.037.163-.077.246-.111.138-.058.28-.108.42-.158.083-.031.167-.065.252-.094.14-.046.28-.084.421-.124.088-.025.176-.053.264-.076.14-.034.281-.06.421-.09.092-.018.183-.04.275-.056.14-.023.282-.039.423-.056.089-.011.176-.024.265-.032 8.385.693 14.982 10.839 15.035 23.13l.001.156zm-19.304.006c0-4.42-1.136-8.502-2.827-10.158a.946.946 0 0 1-.078-.087l-.303-.393c-1.151 2.983-1.828 6.637-1.828 10.638 0 3.979.67 7.617 1.809 10.59l.37-.4c1.72-1.686 2.857-5.77 2.857-10.19zm15.108 0c0-10.28-4.424-18.333-10.072-18.333-2.999 0-5.643 2.284-7.473 5.952l.83 1.079c1.999 2 3.286 6.424 3.286 11.302 0 4.913-1.306 9.366-3.328 11.346l-.847.918c1.832 3.737 4.501 6.07 7.532 6.07 5.648 0 10.072-8.053 10.072-18.334z" filter="url(#hetdd)" mask="url(&quot;#hetde&quot;)"/></g></g></svg>