<svg xmlns="http://www.w3.org/2000/svg" width="153" height="124" viewBox="0 0 153 124"><defs><mask id="f78gb" width="2.37" height="2.66" x="-1.18" y="-1.33"><path fill="#fff" d="M30.7 22.7h91.6v61.6H30.7z"/><path d="M73.417 66.49c0 3.038-2.499 5.51-5.592 5.51-3.092 0-5.592-2.472-5.592-5.51 0-3.044 2.5-5.514 5.592-5.514 3.093 0 5.592 2.47 5.592 5.515zm-2.796 0c0-1.521-1.25-2.752-2.796-2.752-1.546 0-2.796 1.231-2.796 2.753 0 1.515 1.25 2.755 2.796 2.755 1.547 0 2.796-1.24 2.796-2.755zM110 62.783c0 1.467-1.208 2.656-2.697 2.656h-2.886c-.521-3.523-3.605-6.233-7.327-6.233-3.713 0-6.796 2.71-7.318 6.233H75.145c-.521-3.523-3.605-6.233-7.318-6.233-3.713 0-6.796 2.71-7.318 6.233h-3.614c-1.49 0-2.697-1.19-2.697-2.656v-5.88H110zm-7.31 3.709c0 3.037-2.51 5.508-5.593 5.508-3.092 0-5.6-2.47-5.6-5.508 0-3.045 2.508-5.515 5.6-5.515 3.084 0 5.592 2.47 5.592 5.515zm-2.797 0c0-1.522-1.258-2.753-2.796-2.753-1.546 0-2.796 1.231-2.796 2.753 0 1.515 1.25 2.755 2.796 2.755 1.538 0 2.796-1.24 2.796-2.755zm10.105-12.996v1.938H54.196l.001-5.218L43 48.135l19.576-1.671L43 43.722 62.645 41.8l-19.393-2.487 10.944-1.241v-.418c0-1.47 1.214-2.656 2.697-2.656h30.873c1.492 0 2.697 1.187 2.697 2.656v1.975h5.349c.944 0 1.852.372 2.526 1.027l10.6 10.324a3.53 3.53 0 0 1 1.06 2.515zm-5.394-2.888l-8.298-7.799a.459.459 0 0 0-.296-.115h-1.951a.419.419 0 0 0-.423.415v7.8c0 .232.189.417.423.417h10.257c.378 0 .567-.46.288-.718z"/></mask><filter id="f78ga" width="185.2" height="164.2" x="-16.1" y="-24.1" filterUnits="userSpaceOnUse"><feOffset dy="9" in="SourceGraphic" result="FeOffset1064Out"/><feGaussianBlur in="FeOffset1064Out" result="FeGaussianBlur1065Out" stdDeviation="14.719999999999999 14.719999999999999"/></filter><linearGradient id="f78gc" x1="77" x2="76" y1="35" y2="72" gradientUnits="userSpaceOnUse"><stop offset="0" stop-color="#ff0054"/><stop offset="1" stop-color="#ff0042"/></linearGradient><filter id="f78gd" width="200%" height="200%" x="-50%" y="-50%"><feGaussianBlur in="SourceGraphic" result="FeGaussianBlur1086Out" stdDeviation="0 0"/></filter><mask id="f78ge"><path fill="#fff" d="M73.417 66.49c0 3.038-2.499 5.51-5.592 5.51-3.092 0-5.592-2.472-5.592-5.51 0-3.044 2.5-5.514 5.592-5.514 3.093 0 5.592 2.47 5.592 5.515zm-2.796 0c0-1.521-1.25-2.752-2.796-2.752-1.546 0-2.796 1.231-2.796 2.753 0 1.515 1.25 2.755 2.796 2.755 1.547 0 2.796-1.24 2.796-2.755zM110 62.783c0 1.467-1.208 2.656-2.697 2.656h-2.886c-.521-3.523-3.605-6.233-7.327-6.233-3.713 0-6.796 2.71-7.318 6.233H75.145c-.521-3.523-3.605-6.233-7.318-6.233-3.713 0-6.796 2.71-7.318 6.233h-3.614c-1.49 0-2.697-1.19-2.697-2.656v-5.88H110zm-7.31 3.709c0 3.037-2.51 5.508-5.593 5.508-3.092 0-5.6-2.47-5.6-5.508 0-3.045 2.508-5.515 5.6-5.515 3.084 0 5.592 2.47 5.592 5.515zm-2.797 0c0-1.522-1.258-2.753-2.796-2.753-1.546 0-2.796 1.231-2.796 2.753 0 1.515 1.25 2.755 2.796 2.755 1.538 0 2.796-1.24 2.796-2.755zm10.105-12.996v1.938H54.196l.001-5.218L43 48.135l19.576-1.671L43 43.722 62.645 41.8l-19.393-2.487 10.944-1.241v-.418c0-1.47 1.214-2.656 2.697-2.656h30.873c1.492 0 2.697 1.187 2.697 2.656v1.975h5.349c.944 0 1.852.372 2.526 1.027l10.6 10.324a3.53 3.53 0 0 1 1.06 2.515zm-5.394-2.888l-8.298-7.799a.459.459 0 0 0-.296-.115h-1.951a.419.419 0 0 0-.423.415v7.8c0 .232.189.417.423.417h10.257c.378 0 .567-.46.288-.718z"/></mask></defs><g><g><g filter="url(#f78ga)"><path fill="none" stroke="#cb0035" stroke-opacity=".36" stroke-width="24.6" d="M73.417 66.49c0 3.038-2.499 5.51-5.592 5.51-3.092 0-5.592-2.472-5.592-5.51 0-3.044 2.5-5.514 5.592-5.514 3.093 0 5.592 2.47 5.592 5.515zm-2.796 0c0-1.521-1.25-2.752-2.796-2.752-1.546 0-2.796 1.231-2.796 2.753 0 1.515 1.25 2.755 2.796 2.755 1.547 0 2.796-1.24 2.796-2.755zM110 62.783c0 1.467-1.208 2.656-2.697 2.656h-2.886c-.521-3.523-3.605-6.233-7.327-6.233-3.713 0-6.796 2.71-7.318 6.233H75.145c-.521-3.523-3.605-6.233-7.318-6.233-3.713 0-6.796 2.71-7.318 6.233h-3.614c-1.49 0-2.697-1.19-2.697-2.656v-5.88H110zm-7.31 3.709c0 3.037-2.51 5.508-5.593 5.508-3.092 0-5.6-2.47-5.6-5.508 0-3.045 2.508-5.515 5.6-5.515 3.084 0 5.592 2.47 5.592 5.515zm-2.797 0c0-1.522-1.258-2.753-2.796-2.753-1.546 0-2.796 1.231-2.796 2.753 0 1.515 1.25 2.755 2.796 2.755 1.538 0 2.796-1.24 2.796-2.755zm10.105-12.996v1.938H54.196l.001-5.218L43 48.135l19.576-1.671L43 43.722 62.645 41.8l-19.393-2.487 10.944-1.241v-.418c0-1.47 1.214-2.656 2.697-2.656h30.873c1.492 0 2.697 1.187 2.697 2.656v1.975h5.349c.944 0 1.852.372 2.526 1.027l10.6 10.324a3.53 3.53 0 0 1 1.06 2.515zm-5.394-2.888l-8.298-7.799a.459.459 0 0 0-.296-.115h-1.951a.419.419 0 0 0-.423.415v7.8c0 .232.189.417.423.417h10.257c.378 0 .567-.46.288-.718z" mask="url(&quot;#f78gb&quot;)"/><path fill="#cb0035" fill-opacity=".36" d="M73.417 66.49c0 3.038-2.499 5.51-5.592 5.51-3.092 0-5.592-2.472-5.592-5.51 0-3.044 2.5-5.514 5.592-5.514 3.093 0 5.592 2.47 5.592 5.515zm-2.796 0c0-1.521-1.25-2.752-2.796-2.752-1.546 0-2.796 1.231-2.796 2.753 0 1.515 1.25 2.755 2.796 2.755 1.547 0 2.796-1.24 2.796-2.755zM110 62.783c0 1.467-1.208 2.656-2.697 2.656h-2.886c-.521-3.523-3.605-6.233-7.327-6.233-3.713 0-6.796 2.71-7.318 6.233H75.145c-.521-3.523-3.605-6.233-7.318-6.233-3.713 0-6.796 2.71-7.318 6.233h-3.614c-1.49 0-2.697-1.19-2.697-2.656v-5.88H110zm-7.31 3.709c0 3.037-2.51 5.508-5.593 5.508-3.092 0-5.6-2.47-5.6-5.508 0-3.045 2.508-5.515 5.6-5.515 3.084 0 5.592 2.47 5.592 5.515zm-2.797 0c0-1.522-1.258-2.753-2.796-2.753-1.546 0-2.796 1.231-2.796 2.753 0 1.515 1.25 2.755 2.796 2.755 1.538 0 2.796-1.24 2.796-2.755zm10.105-12.996v1.938H54.196l.001-5.218L43 48.135l19.576-1.671L43 43.722 62.645 41.8l-19.393-2.487 10.944-1.241v-.418c0-1.47 1.214-2.656 2.697-2.656h30.873c1.492 0 2.697 1.187 2.697 2.656v1.975h5.349c.944 0 1.852.372 2.526 1.027l10.6 10.324a3.53 3.53 0 0 1 1.06 2.515zm-5.394-2.888l-8.298-7.799a.459.459 0 0 0-.296-.115h-1.951a.419.419 0 0 0-.423.415v7.8c0 .232.189.417.423.417h10.257c.378 0 .567-.46.288-.718z"/></g><path d="M73.417 66.49c0 3.038-2.499 5.51-5.592 5.51-3.092 0-5.592-2.472-5.592-5.51 0-3.044 2.5-5.514 5.592-5.514 3.093 0 5.592 2.47 5.592 5.515zm-2.796 0c0-1.521-1.25-2.752-2.796-2.752-1.546 0-2.796 1.231-2.796 2.753 0 1.515 1.25 2.755 2.796 2.755 1.547 0 2.796-1.24 2.796-2.755zM110 62.783c0 1.467-1.208 2.656-2.697 2.656h-2.886c-.521-3.523-3.605-6.233-7.327-6.233-3.713 0-6.796 2.71-7.318 6.233H75.145c-.521-3.523-3.605-6.233-7.318-6.233-3.713 0-6.796 2.71-7.318 6.233h-3.614c-1.49 0-2.697-1.19-2.697-2.656v-5.88H110zm-7.31 3.709c0 3.037-2.51 5.508-5.593 5.508-3.092 0-5.6-2.47-5.6-5.508 0-3.045 2.508-5.515 5.6-5.515 3.084 0 5.592 2.47 5.592 5.515zm-2.797 0c0-1.522-1.258-2.753-2.796-2.753-1.546 0-2.796 1.231-2.796 2.753 0 1.515 1.25 2.755 2.796 2.755 1.538 0 2.796-1.24 2.796-2.755zm10.105-12.996v1.938H54.196l.001-5.218L43 48.135l19.576-1.671L43 43.722 62.645 41.8l-19.393-2.487 10.944-1.241v-.418c0-1.47 1.214-2.656 2.697-2.656h30.873c1.492 0 2.697 1.187 2.697 2.656v1.975h5.349c.944 0 1.852.372 2.526 1.027l10.6 10.324a3.53 3.53 0 0 1 1.06 2.515zm-5.394-2.888l-8.298-7.799a.459.459 0 0 0-.296-.115h-1.951a.419.419 0 0 0-.423.415v7.8c0 .232.189.417.423.417h10.257c.378 0 .567-.46.288-.718z"/><path fill="url(#f78gc)" d="M73.417 66.49c0 3.038-2.499 5.51-5.592 5.51-3.092 0-5.592-2.472-5.592-5.51 0-3.044 2.5-5.514 5.592-5.514 3.093 0 5.592 2.47 5.592 5.515zm-2.796 0c0-1.521-1.25-2.752-2.796-2.752-1.546 0-2.796 1.231-2.796 2.753 0 1.515 1.25 2.755 2.796 2.755 1.547 0 2.796-1.24 2.796-2.755zM110 62.783c0 1.467-1.208 2.656-2.697 2.656h-2.886c-.521-3.523-3.605-6.233-7.327-6.233-3.713 0-6.796 2.71-7.318 6.233H75.145c-.521-3.523-3.605-6.233-7.318-6.233-3.713 0-6.796 2.71-7.318 6.233h-3.614c-1.49 0-2.697-1.19-2.697-2.656v-5.88H110zm-7.31 3.709c0 3.037-2.51 5.508-5.593 5.508-3.092 0-5.6-2.47-5.6-5.508 0-3.045 2.508-5.515 5.6-5.515 3.084 0 5.592 2.47 5.592 5.515zm-2.797 0c0-1.522-1.258-2.753-2.796-2.753-1.546 0-2.796 1.231-2.796 2.753 0 1.515 1.25 2.755 2.796 2.755 1.538 0 2.796-1.24 2.796-2.755zm10.105-12.996v1.938H54.196l.001-5.218L43 48.135l19.576-1.671L43 43.722 62.645 41.8l-19.393-2.487 10.944-1.241v-.418c0-1.47 1.214-2.656 2.697-2.656h30.873c1.492 0 2.697 1.187 2.697 2.656v1.975h5.349c.944 0 1.852.372 2.526 1.027l10.6 10.324a3.53 3.53 0 0 1 1.06 2.515zm-5.394-2.888l-8.298-7.799a.459.459 0 0 0-.296-.115h-1.951a.419.419 0 0 0-.423.415v7.8c0 .232.189.417.423.417h10.257c.378 0 .567-.46.288-.718z"/><path fill="#f2abba" fill-opacity=".5" d="M43 74V50.135l11.197 2.08v5.218h55.801v-1.938a3.53 3.53 0 0 0-1.06-2.515l-10.6-10.324a3.632 3.632 0 0 0-2.526-1.027h-5.35v-1.975c0-1.47-1.204-2.656-2.696-2.656H56.893c-1.483 0-2.697 1.187-2.697 2.656v.417l-10.944 1.242L62.645 43.8 43 45.722V33h67v41zm24.825-11.024c-3.092 0-5.592 2.47-5.592 5.515 0 3.037 2.5 5.508 5.592 5.508 3.093 0 5.592-2.47 5.592-5.508 0-3.045-2.499-5.515-5.592-5.515zm0 8.27c-1.546 0-2.796-1.24-2.796-2.755 0-1.522 1.25-2.753 2.796-2.753 1.547 0 2.796 1.231 2.796 2.753 0 1.515-1.25 2.755-2.796 2.755zM110 58.902H54.198v5.88c0 1.467 1.208 2.656 2.697 2.656h3.614c.522-3.523 3.605-6.233 7.318-6.233 3.713 0 6.797 2.71 7.318 6.233h14.627c.522-3.523 3.605-6.233 7.318-6.233 3.722 0 6.806 2.71 7.327 6.233h2.886c1.49 0 2.697-1.19 2.697-2.656zm-12.903 4.074c-3.092 0-5.6 2.47-5.6 5.515 0 3.037 2.508 5.508 5.6 5.508 3.084 0 5.592-2.47 5.592-5.508 0-3.045-2.508-5.515-5.592-5.515zm0 8.27c-1.546 0-2.796-1.24-2.796-2.755 0-1.522 1.25-2.753 2.796-2.753 1.538 0 2.796 1.231 2.796 2.753 0 1.515-1.258 2.755-2.796 2.755zM43 45.722zm19.576 2.742L43 50.134v-4.412zM43 50.134zm61.604 2.473c.279.258.09.718-.288.718H94.06a.418.418 0 0 1-.423-.416v-7.8c0-.23.189-.416.423-.416h1.95c.108 0 .216.044.297.115l8.298 7.8z" filter="url(#f78gd)" mask="url(&quot;#f78ge&quot;)"/></g></g></svg>